<?xml version="1.0" encoding="UTF-8"?>
<svg xmlns="http://www.w3.org/2000/svg" viewBox="0 0 48 48" fill="none" aria-hidden="true">
  <title>J3 — Eldnål flat</title>
  <defs>
    <radialGradient id="drdagbokeldnalflat" cx="50%" cy="38%" r="68%">
      <stop offset="0%" stop-color="#3d3420"/>
      <stop offset="48%" stop-color="#141210"/>
      <stop offset="100%" stop-color="#080808"/>
    </radialGradient>
    <linearGradient id="grdagbokeldnalflat" x1="0" y1="0" x2="1" y2="1">
      <stop offset="0%" stop-color="#f5e6b8"/>
      <stop offset="45%" stop-color="#d4af37"/>
      <stop offset="100%" stop-color="#6b5212"/>
    </linearGradient>
    <linearGradient id="frdagbokeldnalflat" x1="24" y1="4" x2="30" y2="20">
      <stop offset="0%" stop-color="#fff8e0"/>
      <stop offset="55%" stop-color="#ffb74d"/>
      <stop offset="100%" stop-color="#c97808"/>
    </linearGradient>
    <filter id="glrdagbokeldnalflat" x="-50%" y="-50%" width="200%" height="200%">
      <feGaussianBlur stdDeviation="1.4" result="b"/>
      <feMerge><feMergeNode in="b"/><feMergeNode in="SourceGraphic"/></feMerge>
    </filter>
    <linearGradient id="rimrdagbokeldnalflat" x1="0" y1="0" x2="1" y2="1">
      <stop offset="0%" stop-color="#5eead4"/>
      <stop offset="40%" stop-color="#818cf8"/>
      <stop offset="75%" stop-color="#d4af37"/>
      <stop offset="100%" stop-color="#2dd4bf"/>
    </linearGradient></defs>
  
  <circle cx="24" cy="24" r="22" fill="url(#drdagbokeldnalflat)" stroke="url(#grdagbokeldnalflat)" stroke-width="1.15" stroke-opacity="0.72"/>
  <circle cx="24" cy="24" r="20.5" stroke="url(#grdagbokeldnalflat)" stroke-opacity="0.08" stroke-width="0.35" fill="none"/>
  
  <g stroke="url(#grdagbokeldnalflat)" stroke-opacity="0.1" stroke-width="0.32">
    <line x1="24" y1="6.5" x2="24" y2="9.2" transform="rotate(0 24 24)"/><line x1="24" y1="6.5" x2="24" y2="9.2" transform="rotate(22.5 24 24)"/><line x1="24" y1="6.5" x2="24" y2="9.2" transform="rotate(45 24 24)"/><line x1="24" y1="6.5" x2="24" y2="9.2" transform="rotate(67.5 24 24)"/><line x1="24" y1="6.5" x2="24" y2="9.2" transform="rotate(90 24 24)"/><line x1="24" y1="6.5" x2="24" y2="9.2" transform="rotate(112.5 24 24)"/><line x1="24" y1="6.5" x2="24" y2="9.2" transform="rotate(135 24 24)"/><line x1="24" y1="6.5" x2="24" y2="9.2" transform="rotate(157.5 24 24)"/><line x1="24" y1="6.5" x2="24" y2="9.2" transform="rotate(180 24 24)"/><line x1="24" y1="6.5" x2="24" y2="9.2" transform="rotate(202.5 24 24)"/><line x1="24" y1="6.5" x2="24" y2="9.2" transform="rotate(225 24 24)"/><line x1="24" y1="6.5" x2="24" y2="9.2" transform="rotate(247.5 24 24)"/><line x1="24" y1="6.5" x2="24" y2="9.2" transform="rotate(270 24 24)"/><line x1="24" y1="6.5" x2="24" y2="9.2" transform="rotate(292.5 24 24)"/><line x1="24" y1="6.5" x2="24" y2="9.2" transform="rotate(315 24 24)"/><line x1="24" y1="6.5" x2="24" y2="9.2" transform="rotate(337.5 24 24)"/>
  </g>
  
  <circle cx="24" cy="24" r="19" stroke="url(#grdagbokeldnalflat)" stroke-opacity="0.2" stroke-width="0.45" stroke-dasharray="1.5 4" fill="none"/>
  <circle cx="24" cy="24" r="12" stroke="url(#grdagbokeldnalflat)" stroke-opacity="0.12" stroke-width="0.35" fill="none"/>
  <circle cx="24" cy="24" r="8" stroke="url(#grdagbokeldnalflat)" stroke-opacity="0.1" stroke-width="0.3" fill="none"/>
  <path d="M24 5 L27 19 L24 23 L21 19 Z" fill="url(#frdagbokeldnalflat)" filter="url(#glrdagbokeldnalflat)"/>
  <circle cx="31" cy="13" r="2.2" fill="#fff8dc" filter="url(#glrdagbokeldnalflat)"/>
  <path d="M31 13 L29 15.5 L31 17.5 L33 15.5 Z" fill="url(#frdagbokeldnalflat)" opacity="0.9"/>
  
  <path d="M12 12 H20 V32 H12 Q10 22 12 12 Z" stroke="url(#grdagbokeldnalflat)" stroke-width="0.65" fill="url(#grdagbokeldnalflat)" fill-opacity="0.14"/>
  <path d="M36 12 H28 V32 H36 Q38 22 36 12 Z" stroke="url(#grdagbokeldnalflat)" stroke-width="0.65" fill="url(#grdagbokeldnalflat)" fill-opacity="0.22"/>
  <path d="M20 12 V32" stroke="url(#grdagbokeldnalflat)" stroke-opacity="0.35" stroke-width="0.45"/>
  <circle cx="30" cy="20" r="3.5" stroke="url(#grdagbokeldnalflat)" stroke-width="0.4" fill="none" opacity="0.5"/>
  <path d="M30 17.2 L30.6 20 L30 21.5 L29.4 20 Z" fill="url(#frdagbokeldnalflat)"/>
  <circle cx="24" cy="24" r="2.8" fill="url(#grdagbokeldnalflat)" stroke="#0a0a0a" stroke-width="0.45"/>
</svg>
