<?xml version="1.0" encoding="UTF-8"?>
<svg xmlns="http://www.w3.org/2000/svg" viewBox="0 0 48 48" fill="none" aria-hidden="true">
  <title>H9 — Sacred oktagon</title>
  <defs>
    <radialGradient id="drhamnsacredflat" cx="50%" cy="38%" r="68%">
      <stop offset="0%" stop-color="#3d3420"/>
      <stop offset="48%" stop-color="#141210"/>
      <stop offset="100%" stop-color="#080808"/>
    </radialGradient>
    <linearGradient id="grhamnsacredflat" x1="0" y1="0" x2="1" y2="1">
      <stop offset="0%" stop-color="#f5e6b8"/>
      <stop offset="45%" stop-color="#d4af37"/>
      <stop offset="100%" stop-color="#6b5212"/>
    </linearGradient>
    <linearGradient id="frhamnsacredflat" x1="24" y1="4" x2="30" y2="20">
      <stop offset="0%" stop-color="#fff8e0"/>
      <stop offset="55%" stop-color="#ffb74d"/>
      <stop offset="100%" stop-color="#c97808"/>
    </linearGradient>
    <filter id="glrhamnsacredflat" x="-50%" y="-50%" width="200%" height="200%">
      <feGaussianBlur stdDeviation="1.4" result="b"/>
      <feMerge><feMergeNode in="b"/><feMergeNode in="SourceGraphic"/></feMerge>
    </filter>
    <linearGradient id="rimrhamnsacredflat" x1="0" y1="0" x2="1" y2="1">
      <stop offset="0%" stop-color="#5eead4"/>
      <stop offset="40%" stop-color="#818cf8"/>
      <stop offset="75%" stop-color="#d4af37"/>
      <stop offset="100%" stop-color="#2dd4bf"/>
    </linearGradient></defs>
  
  <circle cx="24" cy="24" r="22" fill="url(#drhamnsacredflat)" stroke="url(#grhamnsacredflat)" stroke-width="1.15" stroke-opacity="0.72"/>
  <circle cx="24" cy="24" r="20.5" stroke="url(#grhamnsacredflat)" stroke-opacity="0.08" stroke-width="0.35" fill="none"/>
  
  <g stroke="url(#grhamnsacredflat)" stroke-opacity="0.1" stroke-width="0.32">
    <line x1="24" y1="6.5" x2="24" y2="9.2" transform="rotate(0 24 24)"/><line x1="24" y1="6.5" x2="24" y2="9.2" transform="rotate(22.5 24 24)"/><line x1="24" y1="6.5" x2="24" y2="9.2" transform="rotate(45 24 24)"/><line x1="24" y1="6.5" x2="24" y2="9.2" transform="rotate(67.5 24 24)"/><line x1="24" y1="6.5" x2="24" y2="9.2" transform="rotate(90 24 24)"/><line x1="24" y1="6.5" x2="24" y2="9.2" transform="rotate(112.5 24 24)"/><line x1="24" y1="6.5" x2="24" y2="9.2" transform="rotate(135 24 24)"/><line x1="24" y1="6.5" x2="24" y2="9.2" transform="rotate(157.5 24 24)"/><line x1="24" y1="6.5" x2="24" y2="9.2" transform="rotate(180 24 24)"/><line x1="24" y1="6.5" x2="24" y2="9.2" transform="rotate(202.5 24 24)"/><line x1="24" y1="6.5" x2="24" y2="9.2" transform="rotate(225 24 24)"/><line x1="24" y1="6.5" x2="24" y2="9.2" transform="rotate(247.5 24 24)"/><line x1="24" y1="6.5" x2="24" y2="9.2" transform="rotate(270 24 24)"/><line x1="24" y1="6.5" x2="24" y2="9.2" transform="rotate(292.5 24 24)"/><line x1="24" y1="6.5" x2="24" y2="9.2" transform="rotate(315 24 24)"/><line x1="24" y1="6.5" x2="24" y2="9.2" transform="rotate(337.5 24 24)"/>
  </g>
  
  <polygon points="24,6 28.5,14 37.5,14 30.5,20 33,29 24,24 15,29 17.5,20 10.5,14 19.5,14" fill="none" stroke="url(#grhamnsacredflat)" stroke-width="0.55" opacity="0.45"/>
  <g stroke="url(#grhamnsacredflat)" stroke-opacity="0.18" stroke-width="0.28">
    <line x1="24" y1="24" x2="24" y2="7" transform="rotate(0 24 24)"/><line x1="24" y1="24" x2="24" y2="7" transform="rotate(30 24 24)"/><line x1="24" y1="24" x2="24" y2="7" transform="rotate(60 24 24)"/><line x1="24" y1="24" x2="24" y2="7" transform="rotate(90 24 24)"/><line x1="24" y1="24" x2="24" y2="7" transform="rotate(120 24 24)"/><line x1="24" y1="24" x2="24" y2="7" transform="rotate(150 24 24)"/>
  </g>
  <circle cx="33" cy="13" r="1.4" fill="#fff8e0" filter="url(#glrhamnsacredflat)"/>
  
  <path d="M24 10 L28 18 L24 16 L20 18 Z" fill="url(#frhamnsacredflat)" opacity="0.9"/>
  <path d="M16 20 H32 V22 H16 Z" stroke="url(#grhamnsacredflat)" stroke-width="0.7" fill="url(#grhamnsacredflat)" fill-opacity="0.18"/>
  <path d="M18 22 V34 M30 22 V34" stroke="url(#grhamnsacredflat)" stroke-width="0.85" stroke-linecap="round"/>
  <path d="M14 34 H34" stroke="url(#grhamnsacredflat)" stroke-width="0.9" stroke-linecap="round"/>
  <circle cx="24" cy="24" r="2.8" fill="url(#grhamnsacredflat)" stroke="#0a0a0a" stroke-width="0.45"/>
</svg>
