<svg xmlns="http://www.w3.org/2000/svg" viewBox="0 0 48 48" fill="none">
  <defs>
    <radialGradient id="d3c" cx="50%" cy="35%" r="70%">
      <stop offset="0%" stop-color="#4a3a18" stop-opacity="0.5"/>
      <stop offset="40%" stop-color="#1c1610"/>
      <stop offset="100%" stop-color="#050505"/>
    </radialGradient>
    <linearGradient id="d3g" x1="0" y1="0" x2="1" y2="1">
      <stop offset="0%" stop-color="#f0dfa0"/>
      <stop offset="100%" stop-color="#c9a227"/>
    </linearGradient>
    <linearGradient id="d3flame" x1="24" y1="2" x2="24" y2="22">
      <stop offset="0%" stop-color="#fff"/>
      <stop offset="35%" stop-color="#ffd54f"/>
      <stop offset="100%" stop-color="#e65100"/>
    </linearGradient>
    <filter id="d3blur">
      <feGaussianBlur stdDeviation="1.5" result="b"/>
      <feMerge><feMergeNode in="b"/><feMergeNode in="SourceGraphic"/></feMerge>
    </filter>
  </defs>
  <circle cx="24" cy="24" r="22" fill="url(#d3c)" stroke="url(#d3g)" stroke-width="1.1"/>
  <circle cx="24" cy="24" r="19" fill="none" stroke="url(#d3g)" stroke-opacity="0.2" stroke-width="0.5"
    stroke-dasharray="1.5 4"/>
  <g opacity="0.35" stroke="url(#d3g)" stroke-width="0.35">
    <circle cx="24" cy="24" r="12" fill="none"/>
    <circle cx="24" cy="24" r="8" fill="none"/>
  </g>
  <path fill="url(#d3g)" fill-opacity="0.25" d="M24 10 L26 19 L24 24 L22 19 Z"/>
  <path fill="url(#d3g)" fill-opacity="0.2" d="M24 38 L22 29 L24 24 L26 29 Z"/>
  <path fill="url(#d3g)" fill-opacity="0.18" d="M10 24 L19 22 L24 24 L19 26 Z"/>
  <path fill="url(#d3g)" fill-opacity="0.18" d="M38 24 L29 26 L24 24 L29 22 Z"/>
  <path fill="url(#d3g)" fill-opacity="0.15" d="M13 13 L18 18 L24 24 L18 18 Z"/>
  <path fill="url(#d3g)" fill-opacity="0.15" d="M35 13 L30 18 L24 24 L30 18 Z"/>
  <path fill="url(#d3g)" fill-opacity="0.12" d="M35 35 L30 30 L24 24 L30 30 Z"/>
  <path fill="url(#d3g)" fill-opacity="0.12" d="M13 35 L18 30 L24 24 L18 30 Z"/>
  <path d="M24 5 L27 19 L24 23 L21 19 Z" fill="url(#d3flame)" filter="url(#d3blur)"/>
  <circle cx="31" cy="13" r="2.2" fill="#fff8dc" filter="url(#d3blur)"/>
  <path d="M31 13 L29 15.5 L31 17.5 L33 15.5 Z" fill="url(#d3flame)" opacity="0.9"/>
  <circle cx="24" cy="24" r="2.8" fill="#0a0a0a" stroke="url(#d3g)" stroke-width="0.8"/>
  <circle cx="24" cy="24" r="1.2" fill="url(#d3flame)"/>
</svg>
