<svg xmlns="http://www.w3.org/2000/svg" viewBox="64 64 384 384" fill="none">
  <defs>
    <linearGradient id="dockRoseGold" x1="0" y1="0" x2="1" y2="1">
      <stop offset="0%" stop-color="#f2e4b8"/>
      <stop offset="50%" stop-color="#d4af37"/>
      <stop offset="100%" stop-color="#7a5f15"/>
    </linearGradient>
    <linearGradient id="dockRoseNeedle" x1="256" y1="80" x2="256" y2="280">
      <stop offset="0%" stop-color="#fff9e6"/>
      <stop offset="40%" stop-color="#ffb74d"/>
      <stop offset="100%" stop-color="#c9a227"/>
    </linearGradient>
    <filter id="dockRoseGlow">
      <feGaussianBlur stdDeviation="5" result="b"/>
      <feMerge>
        <feMergeNode in="b"/>
        <feMergeNode in="SourceGraphic"/>
      </feMerge>
    </filter>
  </defs>
  <circle cx="256" cy="256" r="188" stroke="url(#dockRoseGold)" stroke-opacity="0.42" stroke-width="3" fill="none"/>
  <circle cx="256" cy="256" r="156" stroke="url(#dockRoseGold)" stroke-opacity="0.22" stroke-width="1.5" stroke-dasharray="8 10" fill="none"/>
  <g stroke="url(#dockRoseGold)" stroke-opacity="0.14" stroke-width="1.5">
    <line x1="256" y1="68" x2="256" y2="444"/>
    <line x1="68" y1="256" x2="444" y2="256"/>
    <line x1="123" y1="123" x2="389" y2="389"/>
    <line x1="389" y1="123" x2="123" y2="389"/>
  </g>
  <g fill="url(#dockRoseGold)" transform="translate(256 256)">
    <path d="M0-148 L18-20 L0 8 L-18-20 Z" fill="url(#dockRoseNeedle)" filter="url(#dockRoseGlow)"/>
    <path d="M0 148 L-18 20 L0-8 L18 20 Z" opacity="0.35"/>
    <path d="M-148 0 L-20-18 L8 0 L-20 18 Z" opacity="0.28"/>
    <path d="M148 0 L20 18 L-8 0 L20-18 Z" opacity="0.28"/>
    <path d="M-105-105 L-35-35 L0 0 L-35-35 Z" opacity="0.2"/>
    <path d="M105-105 L35-35 L0 0 L35-35 Z" opacity="0.2"/>
    <path d="M105 105 L35 35 L0 0 L35 35 Z" opacity="0.18"/>
    <path d="M-105 105 L-35 35 L0 0 L-35 35 Z" opacity="0.18"/>
  </g>
  <circle cx="330" cy="158" r="22" fill="#fff8e0" filter="url(#dockRoseGlow)"/>
  <path d="M330 158 L318 172 L330 186 L342 172 Z" fill="url(#dockRoseNeedle)"/>
  <circle cx="256" cy="256" r="28" fill="#0a0a0a" stroke="url(#dockRoseGold)" stroke-width="4"/>
  <circle cx="256" cy="256" r="12" fill="url(#dockRoseGold)"/>
</svg>
