<?xml version="1.0" encoding="UTF-8"?>
<svg xmlns="http://www.w3.org/2000/svg" viewBox="0 0 48 48" fill="none" aria-hidden="true">
  <title>Hb — Sacred Ember — hamnBiff</title>
  <defs>
    <radialGradient id="dv5hamnBiffg4ember" cx="50%" cy="38%" r="68%">
      <stop offset="0%" stop-color="#3d3420"/>
      <stop offset="48%" stop-color="#141210"/>
      <stop offset="100%" stop-color="#080808"/>
    </radialGradient>
    <linearGradient id="gv5hamnBiffg4ember" x1="0" y1="0" x2="1" y2="1">
      <stop offset="0%" stop-color="#f5e6b8"/>
      <stop offset="45%" stop-color="#d4af37"/>
      <stop offset="100%" stop-color="#6b5212"/>
    </linearGradient>
    <linearGradient id="fv5hamnBiffg4ember" x1="24" y1="4" x2="30" y2="20">
      <stop offset="0%" stop-color="#fff8e0"/>
      <stop offset="55%" stop-color="#ffb74d"/>
      <stop offset="100%" stop-color="#c97808"/>
    </linearGradient>
    <filter id="glv5hamnBiffg4ember" x="-50%" y="-50%" width="200%" height="200%">
      <feGaussianBlur stdDeviation="1.4" result="b"/>
      <feMerge><feMergeNode in="b"/><feMergeNode in="SourceGraphic"/></feMerge>
    </filter>
    <linearGradient id="rimv5hamnBiffg4ember" x1="0" y1="0" x2="1" y2="1">
      <stop offset="0%" stop-color="#5eead4"/>
      <stop offset="40%" stop-color="#818cf8"/>
      <stop offset="75%" stop-color="#d4af37"/>
      <stop offset="100%" stop-color="#2dd4bf"/>
    </linearGradient>
    <filter id="bvv5hamnBiffg4ember" x="-30%" y="-30%" width="160%" height="160%">
      <feDropShadow dx="0" dy="1.2" stdDeviation="0.8" flood-color="#000" flood-opacity="0.55"/>
      <feDropShadow dx="0" dy="-0.6" stdDeviation="0.4" flood-color="#fff8e0" flood-opacity="0.12"/>
    </filter></defs>
  
  <circle cx="24" cy="24" r="22" fill="url(#dv5hamnBiffg4ember)" stroke="url(#gv5hamnBiffg4ember)" stroke-width="1.2" stroke-opacity="0.72"/>
  <circle cx="24" cy="24" r="18" stroke="url(#gv5hamnBiffg4ember)" stroke-opacity="0.26" stroke-width="0.6" stroke-dasharray="2 3" fill="none"/>
  <circle cx="24" cy="24" r="14" stroke="url(#gv5hamnBiffg4ember)" stroke-opacity="0.14" stroke-width="0.45" fill="none"/>
  <g stroke="url(#gv5hamnBiffg4ember)" stroke-opacity="0.1" stroke-width="0.35">
    <line x1="24" y1="8" x2="24" y2="40"/><line x1="8" y1="24" x2="40" y2="24"/>
    <line x1="12.7" y1="12.7" x2="35.3" y2="35.3"/><line x1="35.3" y1="12.7" x2="12.7" y2="35.3"/>
  </g>
  
  <g stroke="url(#gv5hamnBiffg4ember)" stroke-opacity="0.1" stroke-width="0.32">
    <line x1="24" y1="6.5" x2="24" y2="9.2" transform="rotate(0 24 24)"/><line x1="24" y1="6.5" x2="24" y2="9.2" transform="rotate(22.5 24 24)"/><line x1="24" y1="6.5" x2="24" y2="9.2" transform="rotate(45 24 24)"/><line x1="24" y1="6.5" x2="24" y2="9.2" transform="rotate(67.5 24 24)"/><line x1="24" y1="6.5" x2="24" y2="9.2" transform="rotate(90 24 24)"/><line x1="24" y1="6.5" x2="24" y2="9.2" transform="rotate(112.5 24 24)"/><line x1="24" y1="6.5" x2="24" y2="9.2" transform="rotate(135 24 24)"/><line x1="24" y1="6.5" x2="24" y2="9.2" transform="rotate(157.5 24 24)"/><line x1="24" y1="6.5" x2="24" y2="9.2" transform="rotate(180 24 24)"/><line x1="24" y1="6.5" x2="24" y2="9.2" transform="rotate(202.5 24 24)"/><line x1="24" y1="6.5" x2="24" y2="9.2" transform="rotate(225 24 24)"/><line x1="24" y1="6.5" x2="24" y2="9.2" transform="rotate(247.5 24 24)"/><line x1="24" y1="6.5" x2="24" y2="9.2" transform="rotate(270 24 24)"/><line x1="24" y1="6.5" x2="24" y2="9.2" transform="rotate(292.5 24 24)"/><line x1="24" y1="6.5" x2="24" y2="9.2" transform="rotate(315 24 24)"/><line x1="24" y1="6.5" x2="24" y2="9.2" transform="rotate(337.5 24 24)"/>
  </g>
  
  <circle cx="24" cy="24" r="19" stroke="url(#gv5hamnBiffg4ember)" stroke-opacity="0.2" stroke-width="0.45" stroke-dasharray="1.5 4" fill="none"/>
  <circle cx="24" cy="24" r="12" stroke="url(#gv5hamnBiffg4ember)" stroke-opacity="0.12" stroke-width="0.35" fill="none"/>
  <circle cx="24" cy="24" r="8" stroke="url(#gv5hamnBiffg4ember)" stroke-opacity="0.1" stroke-width="0.3" fill="none"/>
  <path d="M24 5 L27 19 L24 23 L21 19 Z" fill="url(#fv5hamnBiffg4ember)" filter="url(#glv5hamnBiffg4ember)"/>
  <circle cx="31" cy="13" r="2.2" fill="#fff8dc" filter="url(#glv5hamnBiffg4ember)"/>
  <path d="M31 13 L29 15.5 L31 17.5 L33 15.5 Z" fill="url(#fv5hamnBiffg4ember)" opacity="0.9" filter="url(#bvv5hamnBiffg4ember)"/>
  <g opacity="0.93">
  <path d="M24 10 L34 14 V24 Q34 34 24 38 Q14 34 14 24 V14 Z" stroke="url(#gv5hamnBiffg4ember)" stroke-width="0.75" fill="url(#gv5hamnBiffg4ember)" fill-opacity="0.12"/>
  <path d="M11 34 H37" stroke="url(#gv5hamnBiffg4ember)" stroke-width="0.7" stroke-linecap="round"/>
  <path d="M18 22 V34 M30 22 V34" stroke="url(#gv5hamnBiffg4ember)" stroke-width="0.65"/>
  <path d="M24 14 L27 20 L24 18 L21 20 Z" fill="url(#fv5hamnBiffg4ember)" filter="url(#glv5hamnBiffg4ember)"/></g>
  <circle cx="24" cy="24" r="2.5" fill="url(#gv5hamnBiffg4ember)" stroke="#0a0a0a" stroke-width="0.5"/>
</svg>
