<?xml version="1.0" encoding="UTF-8"?>
<svg xmlns="http://www.w3.org/2000/svg" viewBox="0 0 48 48" fill="none" aria-hidden="true">
  <title>E — Gold Wire — ekonomi</title>
  <defs>
    <radialGradient id="dv5ekonomig1wire" cx="50%" cy="38%" r="68%">
      <stop offset="0%" stop-color="#3d3420"/>
      <stop offset="48%" stop-color="#141210"/>
      <stop offset="100%" stop-color="#080808"/>
    </radialGradient>
    <linearGradient id="gv5ekonomig1wire" x1="0" y1="0" x2="1" y2="1">
      <stop offset="0%" stop-color="#f5e6b8"/>
      <stop offset="45%" stop-color="#d4af37"/>
      <stop offset="100%" stop-color="#6b5212"/>
    </linearGradient>
    <linearGradient id="fv5ekonomig1wire" x1="24" y1="4" x2="30" y2="20">
      <stop offset="0%" stop-color="#fff8e0"/>
      <stop offset="55%" stop-color="#ffb74d"/>
      <stop offset="100%" stop-color="#c97808"/>
    </linearGradient>
    <filter id="glv5ekonomig1wire" x="-50%" y="-50%" width="200%" height="200%">
      <feGaussianBlur stdDeviation="1.4" result="b"/>
      <feMerge><feMergeNode in="b"/><feMergeNode in="SourceGraphic"/></feMerge>
    </filter>
    <linearGradient id="rimv5ekonomig1wire" x1="0" y1="0" x2="1" y2="1">
      <stop offset="0%" stop-color="#5eead4"/>
      <stop offset="40%" stop-color="#818cf8"/>
      <stop offset="75%" stop-color="#d4af37"/>
      <stop offset="100%" stop-color="#2dd4bf"/>
    </linearGradient></defs>
  
  <circle cx="24" cy="24" r="22" fill="none" stroke="url(#gv5ekonomig1wire)" stroke-width="0.8" stroke-opacity="0.88"/>
  <circle cx="24" cy="24" r="18" stroke="url(#gv5ekonomig1wire)" stroke-opacity="0.4" stroke-width="0.55" fill="none"/>
  <circle cx="24" cy="24" r="14" stroke="url(#gv5ekonomig1wire)" stroke-opacity="0.22" stroke-width="0.45" fill="none"/>
  
  <g stroke="url(#gv5ekonomig1wire)" stroke-opacity="0.1" stroke-width="0.32">
    <line x1="24" y1="6.5" x2="24" y2="9.2" transform="rotate(0 24 24)"/><line x1="24" y1="6.5" x2="24" y2="9.2" transform="rotate(22.5 24 24)"/><line x1="24" y1="6.5" x2="24" y2="9.2" transform="rotate(45 24 24)"/><line x1="24" y1="6.5" x2="24" y2="9.2" transform="rotate(67.5 24 24)"/><line x1="24" y1="6.5" x2="24" y2="9.2" transform="rotate(90 24 24)"/><line x1="24" y1="6.5" x2="24" y2="9.2" transform="rotate(112.5 24 24)"/><line x1="24" y1="6.5" x2="24" y2="9.2" transform="rotate(135 24 24)"/><line x1="24" y1="6.5" x2="24" y2="9.2" transform="rotate(157.5 24 24)"/><line x1="24" y1="6.5" x2="24" y2="9.2" transform="rotate(180 24 24)"/><line x1="24" y1="6.5" x2="24" y2="9.2" transform="rotate(202.5 24 24)"/><line x1="24" y1="6.5" x2="24" y2="9.2" transform="rotate(225 24 24)"/><line x1="24" y1="6.5" x2="24" y2="9.2" transform="rotate(247.5 24 24)"/><line x1="24" y1="6.5" x2="24" y2="9.2" transform="rotate(270 24 24)"/><line x1="24" y1="6.5" x2="24" y2="9.2" transform="rotate(292.5 24 24)"/><line x1="24" y1="6.5" x2="24" y2="9.2" transform="rotate(315 24 24)"/><line x1="24" y1="6.5" x2="24" y2="9.2" transform="rotate(337.5 24 24)"/>
  </g>
  
  <circle cx="24" cy="24" r="20" stroke="url(#gv5ekonomig1wire)" stroke-opacity="0.15" stroke-width="0.35" fill="none"/>
  <g opacity="0.93">
  <ellipse cx="15" cy="20" rx="5" ry="2.6" stroke="url(#gv5ekonomig1wire)" stroke-width="0.65" fill="url(#gv5ekonomig1wire)" fill-opacity="0.14"/>
  <ellipse cx="33" cy="24" rx="5" ry="2.6" stroke="url(#gv5ekonomig1wire)" stroke-width="0.65" fill="url(#gv5ekonomig1wire)" fill-opacity="0.22"/>
  <circle cx="33" cy="18" r="2.5" fill="url(#fv5ekonomig1wire)" filter="url(#glv5ekonomig1wire)"/>
  <circle cx="15" cy="25" r="2.5" fill="url(#gv5ekonomig1wire)" fill-opacity="0.5"/>
  <path d="M11 30 H37" stroke="url(#gv5ekonomig1wire)" stroke-width="0.55" stroke-opacity="0.3"/>
  <path d="M24 12 L24 16" stroke="url(#gv5ekonomig1wire)" stroke-width="0.5" stroke-opacity="0.4"/></g>
  
</svg>
