<?xml version="1.0" encoding="UTF-8"?>
<svg xmlns="http://www.w3.org/2000/svg" viewBox="0 0 48 48" fill="none" aria-hidden="true">
  <title>E — Obsidian Glass — ekonomi</title>
  <defs>
    <radialGradient id="dv5ekonomig5obsidian" cx="50%" cy="38%" r="68%">
      <stop offset="0%" stop-color="#3d3420"/>
      <stop offset="48%" stop-color="#141210"/>
      <stop offset="100%" stop-color="#080808"/>
    </radialGradient>
    <linearGradient id="gv5ekonomig5obsidian" x1="0" y1="0" x2="1" y2="1">
      <stop offset="0%" stop-color="#f5e6b8"/>
      <stop offset="45%" stop-color="#d4af37"/>
      <stop offset="100%" stop-color="#6b5212"/>
    </linearGradient>
    <linearGradient id="fv5ekonomig5obsidian" x1="24" y1="4" x2="30" y2="20">
      <stop offset="0%" stop-color="#fff8e0"/>
      <stop offset="55%" stop-color="#ffb74d"/>
      <stop offset="100%" stop-color="#c97808"/>
    </linearGradient>
    <filter id="glv5ekonomig5obsidian" x="-50%" y="-50%" width="200%" height="200%">
      <feGaussianBlur stdDeviation="1.4" result="b"/>
      <feMerge><feMergeNode in="b"/><feMergeNode in="SourceGraphic"/></feMerge>
    </filter>
    <linearGradient id="rimv5ekonomig5obsidian" x1="0" y1="0" x2="1" y2="1">
      <stop offset="0%" stop-color="#5eead4"/>
      <stop offset="40%" stop-color="#818cf8"/>
      <stop offset="75%" stop-color="#d4af37"/>
      <stop offset="100%" stop-color="#2dd4bf"/>
    </linearGradient>
    <filter id="bvv5ekonomig5obsidian" x="-30%" y="-30%" width="160%" height="160%">
      <feDropShadow dx="0" dy="1.2" stdDeviation="0.8" flood-color="#000" flood-opacity="0.55"/>
      <feDropShadow dx="0" dy="-0.6" stdDeviation="0.4" flood-color="#fff8e0" flood-opacity="0.12"/>
    </filter></defs>
  
  <circle cx="24" cy="24" r="22" fill="url(#dv5ekonomig5obsidian)" stroke="url(#gv5ekonomig5obsidian)" stroke-width="1.2" stroke-opacity="0.72"/>
  <circle cx="24" cy="24" r="18" stroke="url(#gv5ekonomig5obsidian)" stroke-opacity="0.26" stroke-width="0.6" stroke-dasharray="2 3" fill="none"/>
  <circle cx="24" cy="24" r="14" stroke="url(#gv5ekonomig5obsidian)" stroke-opacity="0.14" stroke-width="0.45" fill="none"/>
  <g stroke="url(#gv5ekonomig5obsidian)" stroke-opacity="0.1" stroke-width="0.35">
    <line x1="24" y1="8" x2="24" y2="40"/><line x1="8" y1="24" x2="40" y2="24"/>
    <line x1="12.7" y1="12.7" x2="35.3" y2="35.3"/><line x1="35.3" y1="12.7" x2="12.7" y2="35.3"/>
  </g>
  
  <g stroke="url(#gv5ekonomig5obsidian)" stroke-opacity="0.1" stroke-width="0.32">
    <line x1="24" y1="6.5" x2="24" y2="9.2" transform="rotate(0 24 24)"/><line x1="24" y1="6.5" x2="24" y2="9.2" transform="rotate(22.5 24 24)"/><line x1="24" y1="6.5" x2="24" y2="9.2" transform="rotate(45 24 24)"/><line x1="24" y1="6.5" x2="24" y2="9.2" transform="rotate(67.5 24 24)"/><line x1="24" y1="6.5" x2="24" y2="9.2" transform="rotate(90 24 24)"/><line x1="24" y1="6.5" x2="24" y2="9.2" transform="rotate(112.5 24 24)"/><line x1="24" y1="6.5" x2="24" y2="9.2" transform="rotate(135 24 24)"/><line x1="24" y1="6.5" x2="24" y2="9.2" transform="rotate(157.5 24 24)"/><line x1="24" y1="6.5" x2="24" y2="9.2" transform="rotate(180 24 24)"/><line x1="24" y1="6.5" x2="24" y2="9.2" transform="rotate(202.5 24 24)"/><line x1="24" y1="6.5" x2="24" y2="9.2" transform="rotate(225 24 24)"/><line x1="24" y1="6.5" x2="24" y2="9.2" transform="rotate(247.5 24 24)"/><line x1="24" y1="6.5" x2="24" y2="9.2" transform="rotate(270 24 24)"/><line x1="24" y1="6.5" x2="24" y2="9.2" transform="rotate(292.5 24 24)"/><line x1="24" y1="6.5" x2="24" y2="9.2" transform="rotate(315 24 24)"/><line x1="24" y1="6.5" x2="24" y2="9.2" transform="rotate(337.5 24 24)"/>
  </g>
  
  <circle cx="24" cy="24" r="19" stroke="url(#gv5ekonomig5obsidian)" stroke-opacity="0.35" stroke-width="0.5" fill="none"/>
  <circle cx="24" cy="24" r="15.5" stroke="url(#gv5ekonomig5obsidian)" stroke-opacity="0.22" stroke-width="0.4" stroke-dasharray="3 5" fill="none"/>
  <circle cx="24" cy="24" r="11.5" stroke="url(#gv5ekonomig5obsidian)" stroke-opacity="0.14" stroke-width="0.35" fill="none"/>
  <path d="M24 6 L27.5 20 L24 24 L20.5 20 Z" fill="url(#fv5ekonomig5obsidian)" filter="url(#glv5ekonomig5obsidian)"/>
  <ellipse cx="24" cy="26" rx="8" ry="3" fill="#000" opacity="0.35" filter="url(#bvv5ekonomig5obsidian)"/>
  <g opacity="0.93">
  <ellipse cx="15" cy="20" rx="5" ry="2.6" stroke="url(#gv5ekonomig5obsidian)" stroke-width="0.65" fill="url(#gv5ekonomig5obsidian)" fill-opacity="0.14"/>
  <ellipse cx="33" cy="24" rx="5" ry="2.6" stroke="url(#gv5ekonomig5obsidian)" stroke-width="0.65" fill="url(#gv5ekonomig5obsidian)" fill-opacity="0.22"/>
  <circle cx="33" cy="18" r="2.5" fill="url(#fv5ekonomig5obsidian)" filter="url(#glv5ekonomig5obsidian)"/>
  <circle cx="15" cy="25" r="2.5" fill="url(#gv5ekonomig5obsidian)" fill-opacity="0.5"/>
  <path d="M11 30 H37" stroke="url(#gv5ekonomig5obsidian)" stroke-width="0.55" stroke-opacity="0.3"/>
  <path d="M24 12 L24 16" stroke="url(#gv5ekonomig5obsidian)" stroke-width="0.5" stroke-opacity="0.4"/></g>
  <circle cx="24" cy="24" r="2.5" fill="url(#gv5ekonomig5obsidian)" stroke="#0a0a0a" stroke-width="0.5"/>
</svg>
