<svg xmlns="http://www.w3.org/2000/svg" viewBox="0 0 512 512" fill="none">
  <defs>
    <radialGradient id="b3sky" cx="50%" cy="30%" r="85%">
      <stop offset="0%" stop-color="#0f2838"/>
      <stop offset="100%" stop-color="#020408"/>
    </radialGradient>
    <linearGradient id="b3g" x1="0" y1="0" x2="1" y2="1">
      <stop offset="0%" stop-color="#e8d5a0"/>
      <stop offset="100%" stop-color="#9a7b1f"/>
    </linearGradient>
  </defs>
  <rect width="512" height="512" rx="112" fill="url(#b3sky)"/>
  <g fill="#fff" opacity="0.35">
    <circle cx="80" cy="90" r="1.5"/><circle cx="420" cy="70" r="1"/><circle cx="360" cy="140" r="1.5"/>
    <circle cx="120" cy="200" r="1"/><circle cx="400" cy="380" r="2"/><circle cx="60" cy="400" r="1"/>
  </g>
  <circle cx="256" cy="256" r="180" stroke="url(#b3g)" stroke-opacity="0.25" stroke-width="1" fill="none"/>
  <g stroke="url(#b3g)" stroke-opacity="0.15" stroke-width="0.8">
    <polygon points="256,76 280,200 404,200 304,276 344,400 256,324 168,400 208,276 108,200 232,200" fill="none"/>
    <polygon points="256,120 272,210 362,210 290,260 314,350 256,310 198,350 222,260 150,210 240,210" fill="none"/>
  </g>
  <g transform="translate(256 256)" fill="url(#b3g)">
    <path d="M0-130 L14-18 L0 10 L-14-18 Z"/>
    <path d="M0 130 L-14 18 L0-10 L14 18 Z" opacity="0.3"/>
    <path d="M-130 0 L-18-14 L10 0 L-18 14 Z" opacity="0.25"/>
    <path d="M130 0 L18 14 L-10 0 L18-14 Z" opacity="0.25"/>
  </g>
  <circle cx="310" cy="170" r="16" fill="#fffae6" opacity="0.9"/>
  <circle cx="256" cy="256" r="20" fill="#050508" stroke="url(#b3g)" stroke-width="3"/>
</svg>
