<?xml version="1.0" encoding="UTF-8"?>
<svg xmlns="http://www.w3.org/2000/svg" viewBox="0 0 48 48" fill="none" aria-hidden="true">
  <title>P 1 — Helros</title>
  <defs>
    <radialGradient id="dv3planeringhelros0" cx="50%" cy="38%" r="68%">
      <stop offset="0%" stop-color="#3d3420"/>
      <stop offset="48%" stop-color="#141210"/>
      <stop offset="100%" stop-color="#080808"/>
    </radialGradient>
    <linearGradient id="gv3planeringhelros0" x1="0" y1="0" x2="1" y2="1">
      <stop offset="0%" stop-color="#f5e6b8"/>
      <stop offset="45%" stop-color="#d4af37"/>
      <stop offset="100%" stop-color="#6b5212"/>
    </linearGradient>
    <linearGradient id="fv3planeringhelros0" x1="24" y1="4" x2="30" y2="20">
      <stop offset="0%" stop-color="#fff8e0"/>
      <stop offset="55%" stop-color="#ffb74d"/>
      <stop offset="100%" stop-color="#c97808"/>
    </linearGradient>
    <filter id="glv3planeringhelros0" x="-40%" y="-40%" width="180%" height="180%">
      <feGaussianBlur stdDeviation="1.4" result="b"/>
      <feMerge><feMergeNode in="b"/><feMergeNode in="SourceGraphic"/></feMerge>
    </filter></defs>
  
  <circle cx="24" cy="24" r="22" fill="url(#dv3planeringhelros0)" stroke="url(#gv3planeringhelros0)" stroke-width="1.15" stroke-opacity="0.72"/>
  <circle cx="24" cy="24" r="20.5" stroke="url(#gv3planeringhelros0)" stroke-opacity="0.08" stroke-width="0.35" fill="none"/>
  <g stroke="url(#gv3planeringhelros0)" stroke-opacity="0.09" stroke-width="0.32">
    <line x1="24" y1="6.5" x2="24" y2="8.8" transform="rotate(0 24 24)"/><line x1="24" y1="6.5" x2="24" y2="8.8" transform="rotate(22.5 24 24)"/><line x1="24" y1="6.5" x2="24" y2="8.8" transform="rotate(45 24 24)"/><line x1="24" y1="6.5" x2="24" y2="8.8" transform="rotate(67.5 24 24)"/><line x1="24" y1="6.5" x2="24" y2="8.8" transform="rotate(90 24 24)"/><line x1="24" y1="6.5" x2="24" y2="8.8" transform="rotate(112.5 24 24)"/><line x1="24" y1="6.5" x2="24" y2="8.8" transform="rotate(135 24 24)"/><line x1="24" y1="6.5" x2="24" y2="8.8" transform="rotate(157.5 24 24)"/><line x1="24" y1="6.5" x2="24" y2="8.8" transform="rotate(180 24 24)"/><line x1="24" y1="6.5" x2="24" y2="8.8" transform="rotate(202.5 24 24)"/><line x1="24" y1="6.5" x2="24" y2="8.8" transform="rotate(225 24 24)"/><line x1="24" y1="6.5" x2="24" y2="8.8" transform="rotate(247.5 24 24)"/><line x1="24" y1="6.5" x2="24" y2="8.8" transform="rotate(270 24 24)"/><line x1="24" y1="6.5" x2="24" y2="8.8" transform="rotate(292.5 24 24)"/><line x1="24" y1="6.5" x2="24" y2="8.8" transform="rotate(315 24 24)"/><line x1="24" y1="6.5" x2="24" y2="8.8" transform="rotate(337.5 24 24)"/>
  </g>
  
  <circle cx="24" cy="24" r="18" stroke="url(#gv3planeringhelros0)" stroke-opacity="0.28" stroke-width="0.55" stroke-dasharray="2 3"/>
  <circle cx="24" cy="24" r="14" stroke="url(#gv3planeringhelros0)" stroke-opacity="0.14" stroke-width="0.45"/>
  <circle cx="24" cy="24" r="9.5" stroke="url(#gv3planeringhelros0)" stroke-opacity="0.1" stroke-width="0.35" fill="none"/>
  <g stroke="url(#gv3planeringhelros0)" stroke-opacity="0.11" stroke-width="0.35">
    <line x1="24" y1="8" x2="24" y2="40"/><line x1="8" y1="24" x2="40" y2="24"/>
    <line x1="12.7" y1="12.7" x2="35.3" y2="35.3"/><line x1="35.3" y1="12.7" x2="12.7" y2="35.3"/>
  </g>
  <circle cx="32" cy="14" r="1.6" fill="#fff8e0" opacity="0.85" filter="url(#glv3planeringhelros0)"/>
  <path d="M32 14 L30.6 15.4 L32 16.8 L33.4 15.4 Z" fill="url(#fv3planeringhelros0)" opacity="0.8"/>
  
  <rect x="9" y="14" width="5" height="14" rx="0.6" stroke="url(#gv3planeringhelros0)" stroke-width="0.55" fill="url(#gv3planeringhelros0)" fill-opacity="0.14"/>
  <rect x="16.5" y="11" width="5" height="17" rx="0.6" stroke="url(#gv3planeringhelros0)" stroke-width="0.55" fill="url(#gv3planeringhelros0)" fill-opacity="0.22"/>
  <rect x="24" y="16" width="5" height="12" rx="0.6" stroke="url(#gv3planeringhelros0)" stroke-width="0.55" fill="url(#gv3planeringhelros0)" fill-opacity="0.1"/>
  <circle cx="31" cy="13" r="1.3" fill="url(#fv3planeringhelros0)"/>
  
  <circle cx="24" cy="24" r="2.8" fill="url(#gv3planeringhelros0)" stroke="#0a0a0a" stroke-width="0.45"/>
</svg>
