<?xml version="1.0" encoding="UTF-8"?>
<svg xmlns="http://www.w3.org/2000/svg" viewBox="0 0 48 48" fill="none" aria-hidden="true">
  <title>U1 — D1 skiva + utveckling</title>
  <defs>
    <radialGradient id="dchutvecklingb1kanonrosv20" cx="50%" cy="38%" r="68%">
      <stop offset="0%" stop-color="#3d3420"/>
      <stop offset="48%" stop-color="#141210"/>
      <stop offset="100%" stop-color="#080808"/>
    </radialGradient>
    <linearGradient id="gchutvecklingb1kanonrosv20" x1="0" y1="0" x2="1" y2="1">
      <stop offset="0%" stop-color="#f5e6b8"/>
      <stop offset="45%" stop-color="#d4af37"/>
      <stop offset="100%" stop-color="#6b5212"/>
    </linearGradient>
    <linearGradient id="fchutvecklingb1kanonrosv20" x1="24" y1="4" x2="30" y2="20">
      <stop offset="0%" stop-color="#fff8e0"/>
      <stop offset="55%" stop-color="#ffb74d"/>
      <stop offset="100%" stop-color="#c97808"/>
    </linearGradient>
    <filter id="glchutvecklingb1kanonrosv20" x="-50%" y="-50%" width="200%" height="200%">
      <feGaussianBlur stdDeviation="1.4" result="b"/>
      <feMerge><feMergeNode in="b"/><feMergeNode in="SourceGraphic"/></feMerge>
    </filter>
    <linearGradient id="rimchutvecklingb1kanonrosv20" x1="0" y1="0" x2="1" y2="1">
      <stop offset="0%" stop-color="#5eead4"/>
      <stop offset="40%" stop-color="#818cf8"/>
      <stop offset="75%" stop-color="#d4af37"/>
      <stop offset="100%" stop-color="#2dd4bf"/>
    </linearGradient></defs>
  
  <circle cx="24" cy="24" r="22" fill="url(#dchutvecklingb1kanonrosv20)" stroke="url(#gchutvecklingb1kanonrosv20)" stroke-width="1.2" stroke-opacity="0.72"/>
  <circle cx="24" cy="24" r="18" stroke="url(#gchutvecklingb1kanonrosv20)" stroke-opacity="0.26" stroke-width="0.6" stroke-dasharray="2 3" fill="none"/>
  <circle cx="24" cy="24" r="14" stroke="url(#gchutvecklingb1kanonrosv20)" stroke-opacity="0.14" stroke-width="0.45" fill="none"/>
  <g stroke="url(#gchutvecklingb1kanonrosv20)" stroke-opacity="0.1" stroke-width="0.35">
    <line x1="24" y1="8" x2="24" y2="40"/><line x1="8" y1="24" x2="40" y2="24"/>
    <line x1="12.7" y1="12.7" x2="35.3" y2="35.3"/><line x1="35.3" y1="12.7" x2="12.7" y2="35.3"/>
  </g>
  
  <g stroke="url(#gchutvecklingb1kanonrosv20)" stroke-opacity="0.1" stroke-width="0.32">
    <line x1="24" y1="6.5" x2="24" y2="9.2" transform="rotate(0 24 24)"/><line x1="24" y1="6.5" x2="24" y2="9.2" transform="rotate(22.5 24 24)"/><line x1="24" y1="6.5" x2="24" y2="9.2" transform="rotate(45 24 24)"/><line x1="24" y1="6.5" x2="24" y2="9.2" transform="rotate(67.5 24 24)"/><line x1="24" y1="6.5" x2="24" y2="9.2" transform="rotate(90 24 24)"/><line x1="24" y1="6.5" x2="24" y2="9.2" transform="rotate(112.5 24 24)"/><line x1="24" y1="6.5" x2="24" y2="9.2" transform="rotate(135 24 24)"/><line x1="24" y1="6.5" x2="24" y2="9.2" transform="rotate(157.5 24 24)"/><line x1="24" y1="6.5" x2="24" y2="9.2" transform="rotate(180 24 24)"/><line x1="24" y1="6.5" x2="24" y2="9.2" transform="rotate(202.5 24 24)"/><line x1="24" y1="6.5" x2="24" y2="9.2" transform="rotate(225 24 24)"/><line x1="24" y1="6.5" x2="24" y2="9.2" transform="rotate(247.5 24 24)"/><line x1="24" y1="6.5" x2="24" y2="9.2" transform="rotate(270 24 24)"/><line x1="24" y1="6.5" x2="24" y2="9.2" transform="rotate(292.5 24 24)"/><line x1="24" y1="6.5" x2="24" y2="9.2" transform="rotate(315 24 24)"/><line x1="24" y1="6.5" x2="24" y2="9.2" transform="rotate(337.5 24 24)"/>
  </g>
  
  <g opacity="0.93">
  <path d="M24 30 Q20 21 22.5 14.5 Q24 10 25.5 14.5 Q28 21 24 30" stroke="url(#gchutvecklingb1kanonrosv20)" stroke-width="0.8" fill="url(#gchutvecklingb1kanonrosv20)" fill-opacity="0.2"/>
  <path d="M24 30 Q29 21 31 16 Q32.5 13.5 30.5 17 Q28 21 24 30" stroke="url(#gchutvecklingb1kanonrosv20)" stroke-width="0.7" fill="url(#gchutvecklingb1kanonrosv20)" fill-opacity="0.14"/>
  <path d="M24 30 Q19 21 17 16 Q15.5 13.5 17.5 17 Q19 21 24 30" stroke="url(#gchutvecklingb1kanonrosv20)" stroke-width="0.7" fill="url(#gchutvecklingb1kanonrosv20)" fill-opacity="0.14"/>
  <circle cx="24" cy="11.5" r="1.8" fill="url(#fchutvecklingb1kanonrosv20)" filter="url(#glchutvecklingb1kanonrosv20)"/>
  <path d="M24 11.5 L24 8" stroke="url(#fchutvecklingb1kanonrosv20)" stroke-width="0.4" opacity="0.6"/></g>
  <circle cx="24" cy="24" r="2.5" fill="url(#gchutvecklingb1kanonrosv20)" stroke="#0a0a0a" stroke-width="0.5"/>
</svg>
