<!-- @locked ICON-D1-GOLD — LivskompassMark gold stack -->
<svg xmlns="http://www.w3.org/2000/svg" viewBox="0 0 48 48" fill="none">
  <defs>
    <linearGradient id="fg" x1="0" y1="0" x2="1" y2="1">
      <stop offset="0%" stop-color="#f5e6b8"/>
      <stop offset="50%" stop-color="#d4af37"/>
      <stop offset="100%" stop-color="#8a6b1a"/>
    </linearGradient>
  </defs>
  <circle cx="24" cy="24" r="21" stroke="url(#fg)" stroke-width="0.8" fill="none"/>
  <g fill="url(#fg)">
    <path d="M24 5 L26.8 17.2 L24 20.5 L21.2 17.2 Z"/>
    <path d="M24 43 L21.2 30.8 L24 27.5 L26.8 30.8 Z" opacity="0.5"/>
    <path d="M5 24 L17.2 21.2 L20.5 24 L17.2 26.8 Z" opacity="0.45"/>
    <path d="M43 24 L30.8 26.8 L27.5 24 L30.8 21.2 Z" opacity="0.45"/>
    <path d="M10.5 10.5 L16.8 16.8 L24 24 L16.8 16.8 Z" opacity="0.35"/>
    <path d="M37.5 10.5 L31.2 16.8 L24 24 L31.2 16.8 Z" opacity="0.35"/>
    <path d="M37.5 37.5 L31.2 31.2 L24 24 L31.2 31.2 Z" opacity="0.32"/>
    <path d="M10.5 37.5 L16.8 31.2 L24 24 L16.8 31.2 Z" opacity="0.32"/>
  </g>
  <circle cx="24" cy="24" r="4.5" fill="none" stroke="url(#fg)" stroke-width="0.6"/>
  <circle cx="24" cy="24" r="2" fill="#050508" stroke="url(#fg)" stroke-width="0.35"/>
</svg>
