<?xml version="1.0" encoding="UTF-8"?>
<svg xmlns="http://www.w3.org/2000/svg" viewBox="0 0 48 48" fill="none" aria-hidden="true">
  <title>A — Gold Wire — mabra</title>
  <defs>
    <radialGradient id="dv5mabrag1wire" cx="50%" cy="38%" r="68%">
      <stop offset="0%" stop-color="#3d3420"/>
      <stop offset="48%" stop-color="#141210"/>
      <stop offset="100%" stop-color="#080808"/>
    </radialGradient>
    <linearGradient id="gv5mabrag1wire" x1="0" y1="0" x2="1" y2="1">
      <stop offset="0%" stop-color="#f5e6b8"/>
      <stop offset="45%" stop-color="#d4af37"/>
      <stop offset="100%" stop-color="#6b5212"/>
    </linearGradient>
    <linearGradient id="fv5mabrag1wire" x1="24" y1="4" x2="30" y2="20">
      <stop offset="0%" stop-color="#fff8e0"/>
      <stop offset="55%" stop-color="#ffb74d"/>
      <stop offset="100%" stop-color="#c97808"/>
    </linearGradient>
    <filter id="glv5mabrag1wire" x="-50%" y="-50%" width="200%" height="200%">
      <feGaussianBlur stdDeviation="1.4" result="b"/>
      <feMerge><feMergeNode in="b"/><feMergeNode in="SourceGraphic"/></feMerge>
    </filter>
    <linearGradient id="rimv5mabrag1wire" x1="0" y1="0" x2="1" y2="1">
      <stop offset="0%" stop-color="#5eead4"/>
      <stop offset="40%" stop-color="#818cf8"/>
      <stop offset="75%" stop-color="#d4af37"/>
      <stop offset="100%" stop-color="#2dd4bf"/>
    </linearGradient></defs>
  
  <circle cx="24" cy="24" r="22" fill="none" stroke="url(#gv5mabrag1wire)" stroke-width="0.8" stroke-opacity="0.88"/>
  <circle cx="24" cy="24" r="18" stroke="url(#gv5mabrag1wire)" stroke-opacity="0.4" stroke-width="0.55" fill="none"/>
  <circle cx="24" cy="24" r="14" stroke="url(#gv5mabrag1wire)" stroke-opacity="0.22" stroke-width="0.45" fill="none"/>
  
  <g stroke="url(#gv5mabrag1wire)" stroke-opacity="0.1" stroke-width="0.32">
    <line x1="24" y1="6.5" x2="24" y2="9.2" transform="rotate(0 24 24)"/><line x1="24" y1="6.5" x2="24" y2="9.2" transform="rotate(22.5 24 24)"/><line x1="24" y1="6.5" x2="24" y2="9.2" transform="rotate(45 24 24)"/><line x1="24" y1="6.5" x2="24" y2="9.2" transform="rotate(67.5 24 24)"/><line x1="24" y1="6.5" x2="24" y2="9.2" transform="rotate(90 24 24)"/><line x1="24" y1="6.5" x2="24" y2="9.2" transform="rotate(112.5 24 24)"/><line x1="24" y1="6.5" x2="24" y2="9.2" transform="rotate(135 24 24)"/><line x1="24" y1="6.5" x2="24" y2="9.2" transform="rotate(157.5 24 24)"/><line x1="24" y1="6.5" x2="24" y2="9.2" transform="rotate(180 24 24)"/><line x1="24" y1="6.5" x2="24" y2="9.2" transform="rotate(202.5 24 24)"/><line x1="24" y1="6.5" x2="24" y2="9.2" transform="rotate(225 24 24)"/><line x1="24" y1="6.5" x2="24" y2="9.2" transform="rotate(247.5 24 24)"/><line x1="24" y1="6.5" x2="24" y2="9.2" transform="rotate(270 24 24)"/><line x1="24" y1="6.5" x2="24" y2="9.2" transform="rotate(292.5 24 24)"/><line x1="24" y1="6.5" x2="24" y2="9.2" transform="rotate(315 24 24)"/><line x1="24" y1="6.5" x2="24" y2="9.2" transform="rotate(337.5 24 24)"/>
  </g>
  
  <circle cx="24" cy="24" r="20" stroke="url(#gv5mabrag1wire)" stroke-opacity="0.15" stroke-width="0.35" fill="none"/>
  <g opacity="0.93">
  <path d="M24 31 Q17 22 19.5 15 Q22 10 24 12.5 Q26 10 28.5 15 Q31 22 24 31" stroke="url(#gv5mabrag1wire)" stroke-width="0.85" fill="url(#gv5mabrag1wire)" fill-opacity="0.18"/>
  <path d="M24 12.5 L24 8 M19.5 15 L16 13 M28.5 15 L32 13" stroke="url(#gv5mabrag1wire)" stroke-width="0.45" stroke-linecap="round"/>
  <path d="M20 24 Q24 20 28 24" stroke="url(#fv5mabrag1wire)" stroke-width="0.55" fill="none" opacity="0.7"/>
  <circle cx="24" cy="27" r="2" fill="url(#fv5mabrag1wire)" filter="url(#glv5mabrag1wire)"/>
  <circle cx="18" cy="20" r="0.9" fill="url(#fv5mabrag1wire)" opacity="0.5"/>
  <circle cx="30" cy="20" r="0.9" fill="url(#fv5mabrag1wire)" opacity="0.5"/></g>
  
</svg>
