<?xml version="1.0" encoding="UTF-8"?>
<svg xmlns="http://www.w3.org/2000/svg" viewBox="0 0 48 48" fill="none" aria-hidden="true">
  <title>U10 — Obsidian djup</title>
  <defs>
    <radialGradient id="drutvecklingobsidian3d" cx="50%" cy="38%" r="68%">
      <stop offset="0%" stop-color="#3d3420"/>
      <stop offset="48%" stop-color="#141210"/>
      <stop offset="100%" stop-color="#080808"/>
    </radialGradient>
    <linearGradient id="grutvecklingobsidian3d" x1="0" y1="0" x2="1" y2="1">
      <stop offset="0%" stop-color="#f5e6b8"/>
      <stop offset="45%" stop-color="#d4af37"/>
      <stop offset="100%" stop-color="#6b5212"/>
    </linearGradient>
    <linearGradient id="frutvecklingobsidian3d" x1="24" y1="4" x2="30" y2="20">
      <stop offset="0%" stop-color="#fff8e0"/>
      <stop offset="55%" stop-color="#ffb74d"/>
      <stop offset="100%" stop-color="#c97808"/>
    </linearGradient>
    <filter id="glrutvecklingobsidian3d" x="-50%" y="-50%" width="200%" height="200%">
      <feGaussianBlur stdDeviation="1.4" result="b"/>
      <feMerge><feMergeNode in="b"/><feMergeNode in="SourceGraphic"/></feMerge>
    </filter>
    <linearGradient id="rimrutvecklingobsidian3d" x1="0" y1="0" x2="1" y2="1">
      <stop offset="0%" stop-color="#5eead4"/>
      <stop offset="40%" stop-color="#818cf8"/>
      <stop offset="75%" stop-color="#d4af37"/>
      <stop offset="100%" stop-color="#2dd4bf"/>
    </linearGradient>
    <filter id="bvrutvecklingobsidian3d" x="-30%" y="-30%" width="160%" height="160%">
      <feDropShadow dx="0" dy="1.2" stdDeviation="0.8" flood-color="#000" flood-opacity="0.55"/>
      <feDropShadow dx="0" dy="-0.6" stdDeviation="0.4" flood-color="#fff8e0" flood-opacity="0.12"/>
    </filter></defs>
  
  <circle cx="24" cy="24" r="22" fill="url(#drutvecklingobsidian3d)" stroke="url(#grutvecklingobsidian3d)" stroke-width="1.15" stroke-opacity="0.72"/>
  <circle cx="24" cy="24" r="20.5" stroke="url(#grutvecklingobsidian3d)" stroke-opacity="0.08" stroke-width="0.35" fill="none"/>
  
  <g stroke="url(#grutvecklingobsidian3d)" stroke-opacity="0.1" stroke-width="0.32">
    <line x1="24" y1="6.5" x2="24" y2="9.2" transform="rotate(0 24 24)"/><line x1="24" y1="6.5" x2="24" y2="9.2" transform="rotate(22.5 24 24)"/><line x1="24" y1="6.5" x2="24" y2="9.2" transform="rotate(45 24 24)"/><line x1="24" y1="6.5" x2="24" y2="9.2" transform="rotate(67.5 24 24)"/><line x1="24" y1="6.5" x2="24" y2="9.2" transform="rotate(90 24 24)"/><line x1="24" y1="6.5" x2="24" y2="9.2" transform="rotate(112.5 24 24)"/><line x1="24" y1="6.5" x2="24" y2="9.2" transform="rotate(135 24 24)"/><line x1="24" y1="6.5" x2="24" y2="9.2" transform="rotate(157.5 24 24)"/><line x1="24" y1="6.5" x2="24" y2="9.2" transform="rotate(180 24 24)"/><line x1="24" y1="6.5" x2="24" y2="9.2" transform="rotate(202.5 24 24)"/><line x1="24" y1="6.5" x2="24" y2="9.2" transform="rotate(225 24 24)"/><line x1="24" y1="6.5" x2="24" y2="9.2" transform="rotate(247.5 24 24)"/><line x1="24" y1="6.5" x2="24" y2="9.2" transform="rotate(270 24 24)"/><line x1="24" y1="6.5" x2="24" y2="9.2" transform="rotate(292.5 24 24)"/><line x1="24" y1="6.5" x2="24" y2="9.2" transform="rotate(315 24 24)"/><line x1="24" y1="6.5" x2="24" y2="9.2" transform="rotate(337.5 24 24)"/>
  </g>
  
  <circle cx="24" cy="24" r="19" stroke="url(#grutvecklingobsidian3d)" stroke-opacity="0.35" stroke-width="0.5" fill="none"/>
  <circle cx="24" cy="24" r="15.5" stroke="url(#grutvecklingobsidian3d)" stroke-opacity="0.22" stroke-width="0.4" stroke-dasharray="3 5" fill="none"/>
  <circle cx="24" cy="24" r="11.5" stroke="url(#grutvecklingobsidian3d)" stroke-opacity="0.14" stroke-width="0.35" fill="none"/>
  <path d="M24 6 L27.5 20 L24 24 L20.5 20 Z" fill="url(#frutvecklingobsidian3d)" filter="url(#glrutvecklingobsidian3d)"/>
  <ellipse cx="24" cy="26" rx="8" ry="3" fill="#000" opacity="0.35" filter="url(#bvrutvecklingobsidian3d)"/>
  
  <path d="M24 28 Q20 20 22 14 Q24 10 26 14 Q28 20 24 28" stroke="url(#grutvecklingobsidian3d)" stroke-width="0.75" fill="url(#grutvecklingobsidian3d)" fill-opacity="0.22"/>
  <path d="M24 28 Q28 20 30 16 Q32 14 30 18 Q28 22 24 28" stroke="url(#grutvecklingobsidian3d)" stroke-width="0.65" fill="url(#grutvecklingobsidian3d)" fill-opacity="0.16"/>
  <path d="M24 28 Q16 20 14 16 Q12 14 14 18 Q16 22 24 28" stroke="url(#grutvecklingobsidian3d)" stroke-width="0.65" fill="url(#grutvecklingobsidian3d)" fill-opacity="0.16"/>
  <circle cx="24" cy="12" r="1.5" fill="url(#frutvecklingobsidian3d)"/>
  <circle cx="24" cy="24" r="2.8" fill="url(#grutvecklingobsidian3d)" stroke="#0a0a0a" stroke-width="0.45"/>
</svg>
