<?xml version="1.0" encoding="UTF-8"?>
<svg xmlns="http://www.w3.org/2000/svg" viewBox="0 0 48 48" fill="none" aria-hidden="true">
  <title>M10 — Obsidian djup</title>
  <defs>
    <radialGradient id="dkmpobsidian3d" cx="50%" cy="38%" r="68%">
      <stop offset="0%" stop-color="#3d3420"/>
      <stop offset="48%" stop-color="#141210"/>
      <stop offset="100%" stop-color="#080808"/>
    </radialGradient>
    <linearGradient id="gkmpobsidian3d" x1="0" y1="0" x2="1" y2="1">
      <stop offset="0%" stop-color="#f5e6b8"/>
      <stop offset="45%" stop-color="#d4af37"/>
      <stop offset="100%" stop-color="#6b5212"/>
    </linearGradient>
    <linearGradient id="fkmpobsidian3d" x1="24" y1="4" x2="30" y2="20">
      <stop offset="0%" stop-color="#fff8e0"/>
      <stop offset="55%" stop-color="#ffb74d"/>
      <stop offset="100%" stop-color="#c97808"/>
    </linearGradient>
    <filter id="glkmpobsidian3d" x="-50%" y="-50%" width="200%" height="200%">
      <feGaussianBlur stdDeviation="1.4" result="b"/>
      <feMerge><feMergeNode in="b"/><feMergeNode in="SourceGraphic"/></feMerge>
    </filter>
    <linearGradient id="rimkmpobsidian3d" x1="0" y1="0" x2="1" y2="1">
      <stop offset="0%" stop-color="#5eead4"/>
      <stop offset="40%" stop-color="#818cf8"/>
      <stop offset="75%" stop-color="#d4af37"/>
      <stop offset="100%" stop-color="#2dd4bf"/>
    </linearGradient>
    <filter id="bvkmpobsidian3d" x="-30%" y="-30%" width="160%" height="160%">
      <feDropShadow dx="0" dy="1.2" stdDeviation="0.8" flood-color="#000" flood-opacity="0.55"/>
      <feDropShadow dx="0" dy="-0.6" stdDeviation="0.4" flood-color="#fff8e0" flood-opacity="0.12"/>
    </filter></defs>
  <circle cx="24" cy="24" r="22" fill="url(#dkmpobsidian3d)" stroke="url(#gkmpobsidian3d)" stroke-width="0.95" stroke-opacity="0.55"/>
  
  <circle cx="24" cy="24" r="19" stroke="url(#gkmpobsidian3d)" stroke-opacity="0.35" stroke-width="0.5" fill="none"/>
  <circle cx="24" cy="24" r="15.5" stroke="url(#gkmpobsidian3d)" stroke-opacity="0.22" stroke-width="0.4" stroke-dasharray="3 5" fill="none"/>
  <circle cx="24" cy="24" r="11.5" stroke="url(#gkmpobsidian3d)" stroke-opacity="0.14" stroke-width="0.35" fill="none"/>
  <path d="M24 6 L27.5 20 L24 24 L20.5 20 Z" fill="url(#fkmpobsidian3d)" filter="url(#glkmpobsidian3d)"/>
  <ellipse cx="24" cy="26" rx="8" ry="3" fill="#000" opacity="0.35" filter="url(#bvkmpobsidian3d)"/>
  <polygon points="24,10 26,18 34,18 28,22.5 30,30 24,26 18,30 20,22.5 14,18 22,18" fill="url(#fkmpobsidian3d)" fill-opacity="0.55" stroke="url(#gkmpobsidian3d)" stroke-width="0.45"/>
  <circle cx="24" cy="22" r="2" fill="#fff8e0"/>
</svg>
