<?xml version="1.0" encoding="UTF-8"?>
<svg xmlns="http://www.w3.org/2000/svg" viewBox="0 0 48 48" fill="none" aria-hidden="true">
  <title>M2 — Helros 3D</title>
  <defs>
    <radialGradient id="dkmphelros3d" cx="50%" cy="38%" r="68%">
      <stop offset="0%" stop-color="#3d3420"/>
      <stop offset="48%" stop-color="#141210"/>
      <stop offset="100%" stop-color="#080808"/>
    </radialGradient>
    <linearGradient id="gkmphelros3d" x1="0" y1="0" x2="1" y2="1">
      <stop offset="0%" stop-color="#f5e6b8"/>
      <stop offset="45%" stop-color="#d4af37"/>
      <stop offset="100%" stop-color="#6b5212"/>
    </linearGradient>
    <linearGradient id="fkmphelros3d" x1="24" y1="4" x2="30" y2="20">
      <stop offset="0%" stop-color="#fff8e0"/>
      <stop offset="55%" stop-color="#ffb74d"/>
      <stop offset="100%" stop-color="#c97808"/>
    </linearGradient>
    <filter id="glkmphelros3d" x="-50%" y="-50%" width="200%" height="200%">
      <feGaussianBlur stdDeviation="1.4" result="b"/>
      <feMerge><feMergeNode in="b"/><feMergeNode in="SourceGraphic"/></feMerge>
    </filter>
    <linearGradient id="rimkmphelros3d" x1="0" y1="0" x2="1" y2="1">
      <stop offset="0%" stop-color="#5eead4"/>
      <stop offset="40%" stop-color="#818cf8"/>
      <stop offset="75%" stop-color="#d4af37"/>
      <stop offset="100%" stop-color="#2dd4bf"/>
    </linearGradient>
    <filter id="bvkmphelros3d" x="-30%" y="-30%" width="160%" height="160%">
      <feDropShadow dx="0" dy="1.2" stdDeviation="0.8" flood-color="#000" flood-opacity="0.55"/>
      <feDropShadow dx="0" dy="-0.6" stdDeviation="0.4" flood-color="#fff8e0" flood-opacity="0.12"/>
    </filter></defs>
  <circle cx="24" cy="24" r="22" fill="url(#dkmphelros3d)" stroke="url(#gkmphelros3d)" stroke-width="0.95" stroke-opacity="0.55"/>
  
  <circle cx="24" cy="24" r="18" stroke="url(#gkmphelros3d)" stroke-opacity="0.3" stroke-width="0.55" stroke-dasharray="2 3" fill="none"/>
  <circle cx="24" cy="24" r="14" stroke="url(#gkmphelros3d)" stroke-opacity="0.16" stroke-width="0.45" fill="none"/>
  <g stroke="url(#gkmphelros3d)" stroke-opacity="0.12" stroke-width="0.35">
    <line x1="24" y1="8" x2="24" y2="40"/><line x1="8" y1="24" x2="40" y2="24"/>
    <line x1="12.7" y1="12.7" x2="35.3" y2="35.3"/><line x1="35.3" y1="12.7" x2="12.7" y2="35.3"/>
  </g>
  <circle cx="32" cy="14" r="1.6" fill="#fff8e0" opacity="0.85" filter="url(#glkmphelros3d)"/>
  <path d="M32 14 L30.6 15.4 L32 16.8 L33.4 15.4 Z" fill="url(#fkmphelros3d)" opacity="0.85" filter="url(#bvkmphelros3d)"/>
  <polygon points="24,10 26,18 34,18 28,22.5 30,30 24,26 18,30 20,22.5 14,18 22,18" fill="url(#fkmphelros3d)" fill-opacity="0.55" stroke="url(#gkmphelros3d)" stroke-width="0.45"/>
  <circle cx="24" cy="22" r="2" fill="#fff8e0"/>
</svg>
