<?xml version="1.0" encoding="UTF-8"?>
<svg xmlns="http://www.w3.org/2000/svg" viewBox="0 0 48 48" fill="none" aria-hidden="true">
  <title>M3 — Eldnål flat</title>
  <defs>
    <radialGradient id="dkmpeldnalflat" cx="50%" cy="38%" r="68%">
      <stop offset="0%" stop-color="#3d3420"/>
      <stop offset="48%" stop-color="#141210"/>
      <stop offset="100%" stop-color="#080808"/>
    </radialGradient>
    <linearGradient id="gkmpeldnalflat" x1="0" y1="0" x2="1" y2="1">
      <stop offset="0%" stop-color="#f5e6b8"/>
      <stop offset="45%" stop-color="#d4af37"/>
      <stop offset="100%" stop-color="#6b5212"/>
    </linearGradient>
    <linearGradient id="fkmpeldnalflat" x1="24" y1="4" x2="30" y2="20">
      <stop offset="0%" stop-color="#fff8e0"/>
      <stop offset="55%" stop-color="#ffb74d"/>
      <stop offset="100%" stop-color="#c97808"/>
    </linearGradient>
    <filter id="glkmpeldnalflat" x="-50%" y="-50%" width="200%" height="200%">
      <feGaussianBlur stdDeviation="1.4" result="b"/>
      <feMerge><feMergeNode in="b"/><feMergeNode in="SourceGraphic"/></feMerge>
    </filter>
    <linearGradient id="rimkmpeldnalflat" x1="0" y1="0" x2="1" y2="1">
      <stop offset="0%" stop-color="#5eead4"/>
      <stop offset="40%" stop-color="#818cf8"/>
      <stop offset="75%" stop-color="#d4af37"/>
      <stop offset="100%" stop-color="#2dd4bf"/>
    </linearGradient></defs>
  <circle cx="24" cy="24" r="22" fill="url(#dkmpeldnalflat)" stroke="url(#gkmpeldnalflat)" stroke-width="0.95" stroke-opacity="0.55"/>
  
  <circle cx="24" cy="24" r="19" stroke="url(#gkmpeldnalflat)" stroke-opacity="0.2" stroke-width="0.45" stroke-dasharray="1.5 4" fill="none"/>
  <circle cx="24" cy="24" r="12" stroke="url(#gkmpeldnalflat)" stroke-opacity="0.12" stroke-width="0.35" fill="none"/>
  <circle cx="24" cy="24" r="8" stroke="url(#gkmpeldnalflat)" stroke-opacity="0.1" stroke-width="0.3" fill="none"/>
  <path d="M24 5 L27 19 L24 23 L21 19 Z" fill="url(#fkmpeldnalflat)" filter="url(#glkmpeldnalflat)"/>
  <circle cx="31" cy="13" r="2.2" fill="#fff8dc" filter="url(#glkmpeldnalflat)"/>
  <path d="M31 13 L29 15.5 L31 17.5 L33 15.5 Z" fill="url(#fkmpeldnalflat)" opacity="0.9"/>
  <polygon points="24,10 26,18 34,18 28,22.5 30,30 24,26 18,30 20,22.5 14,18 22,18" fill="url(#fkmpeldnalflat)" fill-opacity="0.55" stroke="url(#gkmpeldnalflat)" stroke-width="0.45"/>
  <circle cx="24" cy="22" r="2" fill="#fff8e0"/>
</svg>
