<?xml version="1.0" encoding="UTF-8"?>
<svg xmlns="http://www.w3.org/2000/svg" viewBox="0 0 48 48" fill="none" aria-hidden="true">
  <title>M9 — Sacred oktagon</title>
  <defs>
    <radialGradient id="dkmpsacredflat" cx="50%" cy="38%" r="68%">
      <stop offset="0%" stop-color="#3d3420"/>
      <stop offset="48%" stop-color="#141210"/>
      <stop offset="100%" stop-color="#080808"/>
    </radialGradient>
    <linearGradient id="gkmpsacredflat" x1="0" y1="0" x2="1" y2="1">
      <stop offset="0%" stop-color="#f5e6b8"/>
      <stop offset="45%" stop-color="#d4af37"/>
      <stop offset="100%" stop-color="#6b5212"/>
    </linearGradient>
    <linearGradient id="fkmpsacredflat" x1="24" y1="4" x2="30" y2="20">
      <stop offset="0%" stop-color="#fff8e0"/>
      <stop offset="55%" stop-color="#ffb74d"/>
      <stop offset="100%" stop-color="#c97808"/>
    </linearGradient>
    <filter id="glkmpsacredflat" x="-50%" y="-50%" width="200%" height="200%">
      <feGaussianBlur stdDeviation="1.4" result="b"/>
      <feMerge><feMergeNode in="b"/><feMergeNode in="SourceGraphic"/></feMerge>
    </filter>
    <linearGradient id="rimkmpsacredflat" x1="0" y1="0" x2="1" y2="1">
      <stop offset="0%" stop-color="#5eead4"/>
      <stop offset="40%" stop-color="#818cf8"/>
      <stop offset="75%" stop-color="#d4af37"/>
      <stop offset="100%" stop-color="#2dd4bf"/>
    </linearGradient></defs>
  <circle cx="24" cy="24" r="22" fill="url(#dkmpsacredflat)" stroke="url(#gkmpsacredflat)" stroke-width="0.95" stroke-opacity="0.55"/>
  
  <polygon points="24,6 28.5,14 37.5,14 30.5,20 33,29 24,24 15,29 17.5,20 10.5,14 19.5,14" fill="none" stroke="url(#gkmpsacredflat)" stroke-width="0.55" opacity="0.45"/>
  <g stroke="url(#gkmpsacredflat)" stroke-opacity="0.18" stroke-width="0.28">
    <line x1="24" y1="24" x2="24" y2="7" transform="rotate(0 24 24)"/><line x1="24" y1="24" x2="24" y2="7" transform="rotate(30 24 24)"/><line x1="24" y1="24" x2="24" y2="7" transform="rotate(60 24 24)"/><line x1="24" y1="24" x2="24" y2="7" transform="rotate(90 24 24)"/><line x1="24" y1="24" x2="24" y2="7" transform="rotate(120 24 24)"/><line x1="24" y1="24" x2="24" y2="7" transform="rotate(150 24 24)"/>
  </g>
  <circle cx="33" cy="13" r="1.4" fill="#fff8e0" filter="url(#glkmpsacredflat)"/>
  <polygon points="24,10 26,18 34,18 28,22.5 30,30 24,26 18,30 20,22.5 14,18 22,18" fill="url(#fkmpsacredflat)" fill-opacity="0.55" stroke="url(#gkmpsacredflat)" stroke-width="0.45"/>
  <circle cx="24" cy="22" r="2" fill="#fff8e0"/>
</svg>
