<?xml version="1.0" encoding="UTF-8"?>
<svg xmlns="http://www.w3.org/2000/svg" viewBox="0 0 48 48" fill="none" aria-hidden="true">
  <title>V8 — Stjärn 3D</title>
  <defs>
    <radialGradient id="dchvalvstjarn3d7" cx="50%" cy="38%" r="68%">
      <stop offset="0%" stop-color="#3d3420"/>
      <stop offset="48%" stop-color="#141210"/>
      <stop offset="100%" stop-color="#080808"/>
    </radialGradient>
    <linearGradient id="gchvalvstjarn3d7" x1="0" y1="0" x2="1" y2="1">
      <stop offset="0%" stop-color="#f5e6b8"/>
      <stop offset="45%" stop-color="#d4af37"/>
      <stop offset="100%" stop-color="#6b5212"/>
    </linearGradient>
    <linearGradient id="fchvalvstjarn3d7" x1="24" y1="4" x2="30" y2="20">
      <stop offset="0%" stop-color="#fff8e0"/>
      <stop offset="55%" stop-color="#ffb74d"/>
      <stop offset="100%" stop-color="#c97808"/>
    </linearGradient>
    <filter id="glchvalvstjarn3d7" x="-50%" y="-50%" width="200%" height="200%">
      <feGaussianBlur stdDeviation="1.4" result="b"/>
      <feMerge><feMergeNode in="b"/><feMergeNode in="SourceGraphic"/></feMerge>
    </filter>
    <linearGradient id="rimchvalvstjarn3d7" x1="0" y1="0" x2="1" y2="1">
      <stop offset="0%" stop-color="#5eead4"/>
      <stop offset="40%" stop-color="#818cf8"/>
      <stop offset="75%" stop-color="#d4af37"/>
      <stop offset="100%" stop-color="#2dd4bf"/>
    </linearGradient>
    <filter id="bvchvalvstjarn3d7" x="-30%" y="-30%" width="160%" height="160%">
      <feDropShadow dx="0" dy="1.2" stdDeviation="0.8" flood-color="#000" flood-opacity="0.55"/>
      <feDropShadow dx="0" dy="-0.6" stdDeviation="0.4" flood-color="#fff8e0" flood-opacity="0.12"/>
    </filter></defs>
  
  <circle cx="24" cy="24" r="22" fill="url(#dchvalvstjarn3d7)" stroke="url(#gchvalvstjarn3d7)" stroke-width="1.2" stroke-opacity="0.72"/>
  <circle cx="24" cy="24" r="18" stroke="url(#gchvalvstjarn3d7)" stroke-opacity="0.26" stroke-width="0.6" stroke-dasharray="2 3" fill="none"/>
  <circle cx="24" cy="24" r="14" stroke="url(#gchvalvstjarn3d7)" stroke-opacity="0.14" stroke-width="0.45" fill="none"/>
  <g stroke="url(#gchvalvstjarn3d7)" stroke-opacity="0.1" stroke-width="0.35">
    <line x1="24" y1="8" x2="24" y2="40"/><line x1="8" y1="24" x2="40" y2="24"/>
    <line x1="12.7" y1="12.7" x2="35.3" y2="35.3"/><line x1="35.3" y1="12.7" x2="12.7" y2="35.3"/>
  </g>
  
  <g stroke="url(#gchvalvstjarn3d7)" stroke-opacity="0.1" stroke-width="0.32">
    <line x1="24" y1="6.5" x2="24" y2="9.2" transform="rotate(0 24 24)"/><line x1="24" y1="6.5" x2="24" y2="9.2" transform="rotate(22.5 24 24)"/><line x1="24" y1="6.5" x2="24" y2="9.2" transform="rotate(45 24 24)"/><line x1="24" y1="6.5" x2="24" y2="9.2" transform="rotate(67.5 24 24)"/><line x1="24" y1="6.5" x2="24" y2="9.2" transform="rotate(90 24 24)"/><line x1="24" y1="6.5" x2="24" y2="9.2" transform="rotate(112.5 24 24)"/><line x1="24" y1="6.5" x2="24" y2="9.2" transform="rotate(135 24 24)"/><line x1="24" y1="6.5" x2="24" y2="9.2" transform="rotate(157.5 24 24)"/><line x1="24" y1="6.5" x2="24" y2="9.2" transform="rotate(180 24 24)"/><line x1="24" y1="6.5" x2="24" y2="9.2" transform="rotate(202.5 24 24)"/><line x1="24" y1="6.5" x2="24" y2="9.2" transform="rotate(225 24 24)"/><line x1="24" y1="6.5" x2="24" y2="9.2" transform="rotate(247.5 24 24)"/><line x1="24" y1="6.5" x2="24" y2="9.2" transform="rotate(270 24 24)"/><line x1="24" y1="6.5" x2="24" y2="9.2" transform="rotate(292.5 24 24)"/><line x1="24" y1="6.5" x2="24" y2="9.2" transform="rotate(315 24 24)"/><line x1="24" y1="6.5" x2="24" y2="9.2" transform="rotate(337.5 24 24)"/>
  </g>
  
  <circle cx="24" cy="24" r="22" fill="url(#gchvalvstjarn3d7)" fill-opacity="0.06"/>
  <polygon points="24,7 26.5,17 37,17 28.5,23 31.5,33 24,27 16.5,33 19.5,23 11,17 21.5,17" fill="url(#gchvalvstjarn3d7)" fill-opacity="0.28" stroke="url(#gchvalvstjarn3d7)" stroke-width="0.55"/>
  <polygon points="24,11 25.5,17 31,17 27,20 28.5,26 24,23 19.5,26 21,20 17,17 22.5,17" fill="url(#fchvalvstjarn3d7)" fill-opacity="0.88" filter="url(#bvchvalvstjarn3d7)"/>
  <g opacity="0.93">
  <path d="M9 22 V35 H39 V22" stroke="url(#gchvalvstjarn3d7)" stroke-width="0.9" stroke-linejoin="round" fill="none"/>
  <path d="M9 22 Q24 7 39 22" stroke="url(#gchvalvstjarn3d7)" stroke-width="0.9" fill="none"/>
  <path d="M16 35 V27 H32 V35" stroke="url(#gchvalvstjarn3d7)" stroke-width="0.7"/>
  <circle cx="24" cy="19" r="3.2" stroke="url(#gchvalvstjarn3d7)" stroke-width="0.5" fill="#0a0a0a"/>
  <circle cx="24" cy="19" r="1.1" fill="url(#fchvalvstjarn3d7)" filter="url(#glchvalvstjarn3d7)"/>
  <path d="M12 14 L16 18 M32 14 L28 18" stroke="url(#gchvalvstjarn3d7)" stroke-width="0.45" stroke-opacity="0.4"/></g>
  <circle cx="24" cy="24" r="2.5" fill="url(#gchvalvstjarn3d7)" stroke="#0a0a0a" stroke-width="0.5"/>
</svg>
