<?xml version="1.0" encoding="UTF-8"?>
<svg xmlns="http://www.w3.org/2000/svg" viewBox="0 0 48 48" fill="none" aria-hidden="true">
  <title>Kn 4 — Pansar-ringar</title>
  <defs>
    <radialGradient id="dv3kunskappansar3" cx="50%" cy="38%" r="68%">
      <stop offset="0%" stop-color="#3d3420"/>
      <stop offset="48%" stop-color="#141210"/>
      <stop offset="100%" stop-color="#080808"/>
    </radialGradient>
    <linearGradient id="gv3kunskappansar3" x1="0" y1="0" x2="1" y2="1">
      <stop offset="0%" stop-color="#f5e6b8"/>
      <stop offset="45%" stop-color="#d4af37"/>
      <stop offset="100%" stop-color="#6b5212"/>
    </linearGradient>
    <linearGradient id="fv3kunskappansar3" x1="24" y1="4" x2="30" y2="20">
      <stop offset="0%" stop-color="#fff8e0"/>
      <stop offset="55%" stop-color="#ffb74d"/>
      <stop offset="100%" stop-color="#c97808"/>
    </linearGradient>
    <filter id="glv3kunskappansar3" x="-40%" y="-40%" width="180%" height="180%">
      <feGaussianBlur stdDeviation="1.4" result="b"/>
      <feMerge><feMergeNode in="b"/><feMergeNode in="SourceGraphic"/></feMerge>
    </filter></defs>
  
  <circle cx="24" cy="24" r="22" fill="url(#dv3kunskappansar3)" stroke="url(#gv3kunskappansar3)" stroke-width="1.15" stroke-opacity="0.72"/>
  <circle cx="24" cy="24" r="20.5" stroke="url(#gv3kunskappansar3)" stroke-opacity="0.08" stroke-width="0.35" fill="none"/>
  <g stroke="url(#gv3kunskappansar3)" stroke-opacity="0.09" stroke-width="0.32">
    <line x1="24" y1="6.5" x2="24" y2="8.8" transform="rotate(0 24 24)"/><line x1="24" y1="6.5" x2="24" y2="8.8" transform="rotate(22.5 24 24)"/><line x1="24" y1="6.5" x2="24" y2="8.8" transform="rotate(45 24 24)"/><line x1="24" y1="6.5" x2="24" y2="8.8" transform="rotate(67.5 24 24)"/><line x1="24" y1="6.5" x2="24" y2="8.8" transform="rotate(90 24 24)"/><line x1="24" y1="6.5" x2="24" y2="8.8" transform="rotate(112.5 24 24)"/><line x1="24" y1="6.5" x2="24" y2="8.8" transform="rotate(135 24 24)"/><line x1="24" y1="6.5" x2="24" y2="8.8" transform="rotate(157.5 24 24)"/><line x1="24" y1="6.5" x2="24" y2="8.8" transform="rotate(180 24 24)"/><line x1="24" y1="6.5" x2="24" y2="8.8" transform="rotate(202.5 24 24)"/><line x1="24" y1="6.5" x2="24" y2="8.8" transform="rotate(225 24 24)"/><line x1="24" y1="6.5" x2="24" y2="8.8" transform="rotate(247.5 24 24)"/><line x1="24" y1="6.5" x2="24" y2="8.8" transform="rotate(270 24 24)"/><line x1="24" y1="6.5" x2="24" y2="8.8" transform="rotate(292.5 24 24)"/><line x1="24" y1="6.5" x2="24" y2="8.8" transform="rotate(315 24 24)"/><line x1="24" y1="6.5" x2="24" y2="8.8" transform="rotate(337.5 24 24)"/>
  </g>
  
  <circle cx="24" cy="24" r="19" stroke="url(#gv3kunskappansar3)" stroke-opacity="0.35" stroke-width="0.5" fill="none"/>
  <circle cx="24" cy="24" r="15.5" stroke="url(#gv3kunskappansar3)" stroke-opacity="0.22" stroke-width="0.4" stroke-dasharray="3 5" fill="none"/>
  <circle cx="24" cy="24" r="11.5" stroke="url(#gv3kunskappansar3)" stroke-opacity="0.14" stroke-width="0.35" fill="none"/>
  <circle cx="31" cy="12" r="1.5" fill="url(#fv3kunskappansar3)" filter="url(#glv3kunskappansar3)"/>
  
  <path d="M11 13 H17 V31 H11 Q9.5 22 11 13 Z" stroke="url(#gv3kunskappansar3)" stroke-width="0.55" fill="url(#gv3kunskappansar3)" fill-opacity="0.1"/>
  <path d="M37 13 H31 V31 H37 Q38.5 22 37 13 Z" stroke="url(#gv3kunskappansar3)" stroke-width="0.55" fill="url(#gv3kunskappansar3)" fill-opacity="0.16"/>
  <path d="M17 13 V31" stroke="url(#gv3kunskappansar3)" stroke-opacity="0.3" stroke-width="0.4"/>
  <circle cx="28" cy="22" r="5" stroke="url(#gv3kunskappansar3)" stroke-width="0.45" fill="none" opacity="0.45"/>
  <path d="M28 18.5 L29 22 L28 24.5 L27 22 Z" fill="url(#fv3kunskappansar3)"/>
  
  <circle cx="24" cy="24" r="2.8" fill="url(#gv3kunskappansar3)" stroke="#0a0a0a" stroke-width="0.45"/>
</svg>
