<?xml version="1.0" encoding="UTF-8"?>
<svg xmlns="http://www.w3.org/2000/svg" viewBox="0 0 48 48" fill="none" aria-hidden="true">
  <title>D1 — Helros flat</title>
  <defs>
    <radialGradient id="dcmphelrosflat" cx="50%" cy="38%" r="68%">
      <stop offset="0%" stop-color="#3d3420"/>
      <stop offset="48%" stop-color="#141210"/>
      <stop offset="100%" stop-color="#080808"/>
    </radialGradient>
    <linearGradient id="gcmphelrosflat" x1="0" y1="0" x2="1" y2="1">
      <stop offset="0%" stop-color="#f5e6b8"/>
      <stop offset="45%" stop-color="#d4af37"/>
      <stop offset="100%" stop-color="#6b5212"/>
    </linearGradient>
    <linearGradient id="fcmphelrosflat" x1="24" y1="4" x2="30" y2="20">
      <stop offset="0%" stop-color="#fff8e0"/>
      <stop offset="55%" stop-color="#ffb74d"/>
      <stop offset="100%" stop-color="#c97808"/>
    </linearGradient>
    <filter id="glcmphelrosflat" x="-50%" y="-50%" width="200%" height="200%">
      <feGaussianBlur stdDeviation="1.4" result="b"/>
      <feMerge><feMergeNode in="b"/><feMergeNode in="SourceGraphic"/></feMerge>
    </filter>
    <linearGradient id="rimcmphelrosflat" x1="0" y1="0" x2="1" y2="1">
      <stop offset="0%" stop-color="#5eead4"/>
      <stop offset="40%" stop-color="#818cf8"/>
      <stop offset="75%" stop-color="#d4af37"/>
      <stop offset="100%" stop-color="#2dd4bf"/>
    </linearGradient></defs>
  <circle cx="24" cy="24" r="22" fill="url(#dcmphelrosflat)" stroke="url(#gcmphelrosflat)" stroke-width="1.15" stroke-opacity="0.75"/>
  
  <g stroke="url(#gcmphelrosflat)" stroke-opacity="0.1" stroke-width="0.32">
    <line x1="24" y1="6.5" x2="24" y2="9.2" transform="rotate(0 24 24)"/><line x1="24" y1="6.5" x2="24" y2="9.2" transform="rotate(22.5 24 24)"/><line x1="24" y1="6.5" x2="24" y2="9.2" transform="rotate(45 24 24)"/><line x1="24" y1="6.5" x2="24" y2="9.2" transform="rotate(67.5 24 24)"/><line x1="24" y1="6.5" x2="24" y2="9.2" transform="rotate(90 24 24)"/><line x1="24" y1="6.5" x2="24" y2="9.2" transform="rotate(112.5 24 24)"/><line x1="24" y1="6.5" x2="24" y2="9.2" transform="rotate(135 24 24)"/><line x1="24" y1="6.5" x2="24" y2="9.2" transform="rotate(157.5 24 24)"/><line x1="24" y1="6.5" x2="24" y2="9.2" transform="rotate(180 24 24)"/><line x1="24" y1="6.5" x2="24" y2="9.2" transform="rotate(202.5 24 24)"/><line x1="24" y1="6.5" x2="24" y2="9.2" transform="rotate(225 24 24)"/><line x1="24" y1="6.5" x2="24" y2="9.2" transform="rotate(247.5 24 24)"/><line x1="24" y1="6.5" x2="24" y2="9.2" transform="rotate(270 24 24)"/><line x1="24" y1="6.5" x2="24" y2="9.2" transform="rotate(292.5 24 24)"/><line x1="24" y1="6.5" x2="24" y2="9.2" transform="rotate(315 24 24)"/><line x1="24" y1="6.5" x2="24" y2="9.2" transform="rotate(337.5 24 24)"/>
  </g>
  
  <circle cx="24" cy="24" r="18" stroke="url(#gcmphelrosflat)" stroke-opacity="0.3" stroke-width="0.55" stroke-dasharray="2 3" fill="none"/>
  <circle cx="24" cy="24" r="14" stroke="url(#gcmphelrosflat)" stroke-opacity="0.16" stroke-width="0.45" fill="none"/>
  <g stroke="url(#gcmphelrosflat)" stroke-opacity="0.12" stroke-width="0.35">
    <line x1="24" y1="8" x2="24" y2="40"/><line x1="8" y1="24" x2="40" y2="24"/>
    <line x1="12.7" y1="12.7" x2="35.3" y2="35.3"/><line x1="35.3" y1="12.7" x2="12.7" y2="35.3"/>
  </g>
  <circle cx="32" cy="14" r="1.6" fill="#fff8e0" opacity="0.85" filter="url(#glcmphelrosflat)"/>
  <path d="M32 14 L30.6 15.4 L32 16.8 L33.4 15.4 Z" fill="url(#fcmphelrosflat)" opacity="0.85"/>
  
  <path fill="url(#gcmphelrosflat)" fill-opacity="0.22" d="M24 10 L26 19 L24 24 L22 19 Z"/>
  <path fill="url(#gcmphelrosflat)" fill-opacity="0.18" d="M24 38 L22 29 L24 24 L26 29 Z"/>
  <path fill="url(#gcmphelrosflat)" fill-opacity="0.16" d="M10 24 L19 22 L24 24 L19 26 Z"/>
  <path fill="url(#gcmphelrosflat)" fill-opacity="0.16" d="M38 24 L29 26 L24 24 L29 22 Z"/>
  <path fill="url(#gcmphelrosflat)" fill-opacity="0.14" d="M13 13 L18 18 L24 24 L18 18 Z"/>
  <path fill="url(#gcmphelrosflat)" fill-opacity="0.14" d="M35 13 L30 18 L24 24 L30 18 Z"/>
  <path fill="url(#gcmphelrosflat)" fill-opacity="0.12" d="M35 35 L30 30 L24 24 L30 30 Z"/>
  <path fill="url(#gcmphelrosflat)" fill-opacity="0.12" d="M13 35 L18 30 L24 24 L18 30 Z"/>
  <circle cx="24" cy="24" r="2.8" fill="#0a0a0a" stroke="url(#gcmphelrosflat)" stroke-width="0.8"/>
  <circle cx="24" cy="24" r="1.2" fill="url(#fcmphelrosflat)"/>
</svg>
