<?xml version="1.0" encoding="UTF-8"?>
<svg xmlns="http://www.w3.org/2000/svg" viewBox="0 0 48 48" fill="none" aria-hidden="true">
  <title>D7 — Stjärn flat</title>
  <defs>
    <radialGradient id="dcmpstjarnflat" cx="50%" cy="38%" r="68%">
      <stop offset="0%" stop-color="#3d3420"/>
      <stop offset="48%" stop-color="#141210"/>
      <stop offset="100%" stop-color="#080808"/>
    </radialGradient>
    <linearGradient id="gcmpstjarnflat" x1="0" y1="0" x2="1" y2="1">
      <stop offset="0%" stop-color="#f5e6b8"/>
      <stop offset="45%" stop-color="#d4af37"/>
      <stop offset="100%" stop-color="#6b5212"/>
    </linearGradient>
    <linearGradient id="fcmpstjarnflat" x1="24" y1="4" x2="30" y2="20">
      <stop offset="0%" stop-color="#fff8e0"/>
      <stop offset="55%" stop-color="#ffb74d"/>
      <stop offset="100%" stop-color="#c97808"/>
    </linearGradient>
    <filter id="glcmpstjarnflat" x="-50%" y="-50%" width="200%" height="200%">
      <feGaussianBlur stdDeviation="1.4" result="b"/>
      <feMerge><feMergeNode in="b"/><feMergeNode in="SourceGraphic"/></feMerge>
    </filter>
    <linearGradient id="rimcmpstjarnflat" x1="0" y1="0" x2="1" y2="1">
      <stop offset="0%" stop-color="#5eead4"/>
      <stop offset="40%" stop-color="#818cf8"/>
      <stop offset="75%" stop-color="#d4af37"/>
      <stop offset="100%" stop-color="#2dd4bf"/>
    </linearGradient></defs>
  <circle cx="24" cy="24" r="22" fill="url(#dcmpstjarnflat)" stroke="url(#gcmpstjarnflat)" stroke-width="1.15" stroke-opacity="0.75"/>
  
  <g stroke="url(#gcmpstjarnflat)" stroke-opacity="0.1" stroke-width="0.32">
    <line x1="24" y1="6.5" x2="24" y2="9.2" transform="rotate(0 24 24)"/><line x1="24" y1="6.5" x2="24" y2="9.2" transform="rotate(22.5 24 24)"/><line x1="24" y1="6.5" x2="24" y2="9.2" transform="rotate(45 24 24)"/><line x1="24" y1="6.5" x2="24" y2="9.2" transform="rotate(67.5 24 24)"/><line x1="24" y1="6.5" x2="24" y2="9.2" transform="rotate(90 24 24)"/><line x1="24" y1="6.5" x2="24" y2="9.2" transform="rotate(112.5 24 24)"/><line x1="24" y1="6.5" x2="24" y2="9.2" transform="rotate(135 24 24)"/><line x1="24" y1="6.5" x2="24" y2="9.2" transform="rotate(157.5 24 24)"/><line x1="24" y1="6.5" x2="24" y2="9.2" transform="rotate(180 24 24)"/><line x1="24" y1="6.5" x2="24" y2="9.2" transform="rotate(202.5 24 24)"/><line x1="24" y1="6.5" x2="24" y2="9.2" transform="rotate(225 24 24)"/><line x1="24" y1="6.5" x2="24" y2="9.2" transform="rotate(247.5 24 24)"/><line x1="24" y1="6.5" x2="24" y2="9.2" transform="rotate(270 24 24)"/><line x1="24" y1="6.5" x2="24" y2="9.2" transform="rotate(292.5 24 24)"/><line x1="24" y1="6.5" x2="24" y2="9.2" transform="rotate(315 24 24)"/><line x1="24" y1="6.5" x2="24" y2="9.2" transform="rotate(337.5 24 24)"/>
  </g>
  
  <circle cx="24" cy="24" r="22" fill="url(#gcmpstjarnflat)" fill-opacity="0.06"/>
  <polygon points="24,7 26.5,17 37,17 28.5,23 31.5,33 24,27 16.5,33 19.5,23 11,17 21.5,17" fill="url(#gcmpstjarnflat)" fill-opacity="0.28" stroke="url(#gcmpstjarnflat)" stroke-width="0.55"/>
  <polygon points="24,11 25.5,17 31,17 27,20 28.5,26 24,23 19.5,26 21,20 17,17 22.5,17" fill="url(#fcmpstjarnflat)" fill-opacity="0.88"/>
  
  <path fill="url(#gcmpstjarnflat)" fill-opacity="0.22" d="M24 10 L26 19 L24 24 L22 19 Z"/>
  <path fill="url(#gcmpstjarnflat)" fill-opacity="0.18" d="M24 38 L22 29 L24 24 L26 29 Z"/>
  <path fill="url(#gcmpstjarnflat)" fill-opacity="0.16" d="M10 24 L19 22 L24 24 L19 26 Z"/>
  <path fill="url(#gcmpstjarnflat)" fill-opacity="0.16" d="M38 24 L29 26 L24 24 L29 22 Z"/>
  <path fill="url(#gcmpstjarnflat)" fill-opacity="0.14" d="M13 13 L18 18 L24 24 L18 18 Z"/>
  <path fill="url(#gcmpstjarnflat)" fill-opacity="0.14" d="M35 13 L30 18 L24 24 L30 18 Z"/>
  <path fill="url(#gcmpstjarnflat)" fill-opacity="0.12" d="M35 35 L30 30 L24 24 L30 30 Z"/>
  <path fill="url(#gcmpstjarnflat)" fill-opacity="0.12" d="M13 35 L18 30 L24 24 L18 30 Z"/>
  <circle cx="24" cy="24" r="2.8" fill="#0a0a0a" stroke="url(#gcmpstjarnflat)" stroke-width="0.8"/>
  <circle cx="24" cy="24" r="1.2" fill="url(#fcmpstjarnflat)"/>
</svg>
