<?xml version="1.0" encoding="UTF-8"?>
<svg xmlns="http://www.w3.org/2000/svg" viewBox="0 0 48 48" fill="none" aria-hidden="true">
  <title>P5 — Aurora flat</title>
  <defs>
    <radialGradient id="dchplaneringauroraflat4" cx="50%" cy="38%" r="68%">
      <stop offset="0%" stop-color="#3d3420"/>
      <stop offset="48%" stop-color="#141210"/>
      <stop offset="100%" stop-color="#080808"/>
    </radialGradient>
    <linearGradient id="gchplaneringauroraflat4" x1="0" y1="0" x2="1" y2="1">
      <stop offset="0%" stop-color="#f5e6b8"/>
      <stop offset="45%" stop-color="#d4af37"/>
      <stop offset="100%" stop-color="#6b5212"/>
    </linearGradient>
    <linearGradient id="fchplaneringauroraflat4" x1="24" y1="4" x2="30" y2="20">
      <stop offset="0%" stop-color="#fff8e0"/>
      <stop offset="55%" stop-color="#ffb74d"/>
      <stop offset="100%" stop-color="#c97808"/>
    </linearGradient>
    <filter id="glchplaneringauroraflat4" x="-50%" y="-50%" width="200%" height="200%">
      <feGaussianBlur stdDeviation="1.4" result="b"/>
      <feMerge><feMergeNode in="b"/><feMergeNode in="SourceGraphic"/></feMerge>
    </filter>
    <linearGradient id="rimchplaneringauroraflat4" x1="0" y1="0" x2="1" y2="1">
      <stop offset="0%" stop-color="#5eead4"/>
      <stop offset="40%" stop-color="#818cf8"/>
      <stop offset="75%" stop-color="#d4af37"/>
      <stop offset="100%" stop-color="#2dd4bf"/>
    </linearGradient></defs>
  
  <circle cx="24" cy="24" r="22" fill="url(#dchplaneringauroraflat4)" stroke="url(#gchplaneringauroraflat4)" stroke-width="1.2" stroke-opacity="0.72"/>
  <circle cx="24" cy="24" r="18" stroke="url(#gchplaneringauroraflat4)" stroke-opacity="0.26" stroke-width="0.6" stroke-dasharray="2 3" fill="none"/>
  <circle cx="24" cy="24" r="14" stroke="url(#gchplaneringauroraflat4)" stroke-opacity="0.14" stroke-width="0.45" fill="none"/>
  <g stroke="url(#gchplaneringauroraflat4)" stroke-opacity="0.1" stroke-width="0.35">
    <line x1="24" y1="8" x2="24" y2="40"/><line x1="8" y1="24" x2="40" y2="24"/>
    <line x1="12.7" y1="12.7" x2="35.3" y2="35.3"/><line x1="35.3" y1="12.7" x2="12.7" y2="35.3"/>
  </g>
  
  <g stroke="url(#gchplaneringauroraflat4)" stroke-opacity="0.1" stroke-width="0.32">
    <line x1="24" y1="6.5" x2="24" y2="9.2" transform="rotate(0 24 24)"/><line x1="24" y1="6.5" x2="24" y2="9.2" transform="rotate(22.5 24 24)"/><line x1="24" y1="6.5" x2="24" y2="9.2" transform="rotate(45 24 24)"/><line x1="24" y1="6.5" x2="24" y2="9.2" transform="rotate(67.5 24 24)"/><line x1="24" y1="6.5" x2="24" y2="9.2" transform="rotate(90 24 24)"/><line x1="24" y1="6.5" x2="24" y2="9.2" transform="rotate(112.5 24 24)"/><line x1="24" y1="6.5" x2="24" y2="9.2" transform="rotate(135 24 24)"/><line x1="24" y1="6.5" x2="24" y2="9.2" transform="rotate(157.5 24 24)"/><line x1="24" y1="6.5" x2="24" y2="9.2" transform="rotate(180 24 24)"/><line x1="24" y1="6.5" x2="24" y2="9.2" transform="rotate(202.5 24 24)"/><line x1="24" y1="6.5" x2="24" y2="9.2" transform="rotate(225 24 24)"/><line x1="24" y1="6.5" x2="24" y2="9.2" transform="rotate(247.5 24 24)"/><line x1="24" y1="6.5" x2="24" y2="9.2" transform="rotate(270 24 24)"/><line x1="24" y1="6.5" x2="24" y2="9.2" transform="rotate(292.5 24 24)"/><line x1="24" y1="6.5" x2="24" y2="9.2" transform="rotate(315 24 24)"/><line x1="24" y1="6.5" x2="24" y2="9.2" transform="rotate(337.5 24 24)"/>
  </g>
  
  <circle cx="24" cy="24" r="20.5" stroke="url(#rimchplaneringauroraflat4)" stroke-opacity="0.55" stroke-width="0.85" fill="none"/>
  <circle cx="24" cy="24" r="17" stroke="url(#gchplaneringauroraflat4)" stroke-opacity="0.22" stroke-width="0.5" fill="none"/>
  <polygon points="24,9 26,17 34,17 27.5,21.5 29.5,29 24,25 18.5,29 20.5,21.5 14,17 22,17" fill="none" stroke="url(#gchplaneringauroraflat4)" stroke-width="0.45" opacity="0.4"/>
  <path d="M24 8 L25.5 17 L24 21 L22.5 17 Z" fill="url(#fchplaneringauroraflat4)" opacity="0.7"/>
  <g opacity="0.93">
  <rect x="8.5" y="15" width="5.5" height="13" rx="0.7" stroke="url(#gchplaneringauroraflat4)" stroke-width="0.55" fill="url(#gchplaneringauroraflat4)" fill-opacity="0.14"/>
  <rect x="16" y="11" width="5.5" height="17" rx="0.7" stroke="url(#gchplaneringauroraflat4)" stroke-width="0.55" fill="url(#gchplaneringauroraflat4)" fill-opacity="0.26"/>
  <rect x="23.5" y="17" width="5.5" height="11" rx="0.7" stroke="url(#gchplaneringauroraflat4)" stroke-width="0.55" fill="url(#gchplaneringauroraflat4)" fill-opacity="0.12"/>
  <circle cx="31" cy="12" r="5" stroke="url(#gchplaneringauroraflat4)" stroke-width="0.5" fill="none" opacity="0.45"/>
  <path d="M31 9 V15 M28 12 H34" stroke="url(#gchplaneringauroraflat4)" stroke-width="0.45" stroke-linecap="round"/>
  <circle cx="31" cy="12" r="1.2" fill="url(#fchplaneringauroraflat4)" filter="url(#glchplaneringauroraflat4)"/></g>
  <circle cx="24" cy="24" r="2.5" fill="url(#gchplaneringauroraflat4)" stroke="#0a0a0a" stroke-width="0.5"/>
</svg>
