<?xml version="1.0" encoding="UTF-8"?>
<svg xmlns="http://www.w3.org/2000/svg" viewBox="0 0 48 48" fill="none" aria-hidden="true">
  <title>P7 — Stjärn flat</title>
  <defs>
    <radialGradient id="dchplaneringstjarnflat6" cx="50%" cy="38%" r="68%">
      <stop offset="0%" stop-color="#3d3420"/>
      <stop offset="48%" stop-color="#141210"/>
      <stop offset="100%" stop-color="#080808"/>
    </radialGradient>
    <linearGradient id="gchplaneringstjarnflat6" x1="0" y1="0" x2="1" y2="1">
      <stop offset="0%" stop-color="#f5e6b8"/>
      <stop offset="45%" stop-color="#d4af37"/>
      <stop offset="100%" stop-color="#6b5212"/>
    </linearGradient>
    <linearGradient id="fchplaneringstjarnflat6" x1="24" y1="4" x2="30" y2="20">
      <stop offset="0%" stop-color="#fff8e0"/>
      <stop offset="55%" stop-color="#ffb74d"/>
      <stop offset="100%" stop-color="#c97808"/>
    </linearGradient>
    <filter id="glchplaneringstjarnflat6" x="-50%" y="-50%" width="200%" height="200%">
      <feGaussianBlur stdDeviation="1.4" result="b"/>
      <feMerge><feMergeNode in="b"/><feMergeNode in="SourceGraphic"/></feMerge>
    </filter>
    <linearGradient id="rimchplaneringstjarnflat6" x1="0" y1="0" x2="1" y2="1">
      <stop offset="0%" stop-color="#5eead4"/>
      <stop offset="40%" stop-color="#818cf8"/>
      <stop offset="75%" stop-color="#d4af37"/>
      <stop offset="100%" stop-color="#2dd4bf"/>
    </linearGradient></defs>
  
  <circle cx="24" cy="24" r="22" fill="url(#dchplaneringstjarnflat6)" stroke="url(#gchplaneringstjarnflat6)" stroke-width="1.2" stroke-opacity="0.72"/>
  <circle cx="24" cy="24" r="18" stroke="url(#gchplaneringstjarnflat6)" stroke-opacity="0.26" stroke-width="0.6" stroke-dasharray="2 3" fill="none"/>
  <circle cx="24" cy="24" r="14" stroke="url(#gchplaneringstjarnflat6)" stroke-opacity="0.14" stroke-width="0.45" fill="none"/>
  <g stroke="url(#gchplaneringstjarnflat6)" stroke-opacity="0.1" stroke-width="0.35">
    <line x1="24" y1="8" x2="24" y2="40"/><line x1="8" y1="24" x2="40" y2="24"/>
    <line x1="12.7" y1="12.7" x2="35.3" y2="35.3"/><line x1="35.3" y1="12.7" x2="12.7" y2="35.3"/>
  </g>
  
  <g stroke="url(#gchplaneringstjarnflat6)" stroke-opacity="0.1" stroke-width="0.32">
    <line x1="24" y1="6.5" x2="24" y2="9.2" transform="rotate(0 24 24)"/><line x1="24" y1="6.5" x2="24" y2="9.2" transform="rotate(22.5 24 24)"/><line x1="24" y1="6.5" x2="24" y2="9.2" transform="rotate(45 24 24)"/><line x1="24" y1="6.5" x2="24" y2="9.2" transform="rotate(67.5 24 24)"/><line x1="24" y1="6.5" x2="24" y2="9.2" transform="rotate(90 24 24)"/><line x1="24" y1="6.5" x2="24" y2="9.2" transform="rotate(112.5 24 24)"/><line x1="24" y1="6.5" x2="24" y2="9.2" transform="rotate(135 24 24)"/><line x1="24" y1="6.5" x2="24" y2="9.2" transform="rotate(157.5 24 24)"/><line x1="24" y1="6.5" x2="24" y2="9.2" transform="rotate(180 24 24)"/><line x1="24" y1="6.5" x2="24" y2="9.2" transform="rotate(202.5 24 24)"/><line x1="24" y1="6.5" x2="24" y2="9.2" transform="rotate(225 24 24)"/><line x1="24" y1="6.5" x2="24" y2="9.2" transform="rotate(247.5 24 24)"/><line x1="24" y1="6.5" x2="24" y2="9.2" transform="rotate(270 24 24)"/><line x1="24" y1="6.5" x2="24" y2="9.2" transform="rotate(292.5 24 24)"/><line x1="24" y1="6.5" x2="24" y2="9.2" transform="rotate(315 24 24)"/><line x1="24" y1="6.5" x2="24" y2="9.2" transform="rotate(337.5 24 24)"/>
  </g>
  
  <circle cx="24" cy="24" r="22" fill="url(#gchplaneringstjarnflat6)" fill-opacity="0.06"/>
  <polygon points="24,7 26.5,17 37,17 28.5,23 31.5,33 24,27 16.5,33 19.5,23 11,17 21.5,17" fill="url(#gchplaneringstjarnflat6)" fill-opacity="0.28" stroke="url(#gchplaneringstjarnflat6)" stroke-width="0.55"/>
  <polygon points="24,11 25.5,17 31,17 27,20 28.5,26 24,23 19.5,26 21,20 17,17 22.5,17" fill="url(#fchplaneringstjarnflat6)" fill-opacity="0.88"/>
  <g opacity="0.93">
  <rect x="8.5" y="15" width="5.5" height="13" rx="0.7" stroke="url(#gchplaneringstjarnflat6)" stroke-width="0.55" fill="url(#gchplaneringstjarnflat6)" fill-opacity="0.14"/>
  <rect x="16" y="11" width="5.5" height="17" rx="0.7" stroke="url(#gchplaneringstjarnflat6)" stroke-width="0.55" fill="url(#gchplaneringstjarnflat6)" fill-opacity="0.26"/>
  <rect x="23.5" y="17" width="5.5" height="11" rx="0.7" stroke="url(#gchplaneringstjarnflat6)" stroke-width="0.55" fill="url(#gchplaneringstjarnflat6)" fill-opacity="0.12"/>
  <circle cx="31" cy="12" r="5" stroke="url(#gchplaneringstjarnflat6)" stroke-width="0.5" fill="none" opacity="0.45"/>
  <path d="M31 9 V15 M28 12 H34" stroke="url(#gchplaneringstjarnflat6)" stroke-width="0.45" stroke-linecap="round"/>
  <circle cx="31" cy="12" r="1.2" fill="url(#fchplaneringstjarnflat6)" filter="url(#glchplaneringstjarnflat6)"/></g>
  <circle cx="24" cy="24" r="2.5" fill="url(#gchplaneringstjarnflat6)" stroke="#0a0a0a" stroke-width="0.5"/>
</svg>
