<?xml version="1.0" encoding="UTF-8"?>
<svg xmlns="http://www.w3.org/2000/svg" viewBox="0 0 48 48" fill="none" aria-hidden="true">
  <title>U 5 — Eldnål</title>
  <defs>
    <radialGradient id="dv3utvecklingeldnal4" cx="50%" cy="38%" r="68%">
      <stop offset="0%" stop-color="#3d3420"/>
      <stop offset="48%" stop-color="#141210"/>
      <stop offset="100%" stop-color="#080808"/>
    </radialGradient>
    <linearGradient id="gv3utvecklingeldnal4" x1="0" y1="0" x2="1" y2="1">
      <stop offset="0%" stop-color="#f5e6b8"/>
      <stop offset="45%" stop-color="#d4af37"/>
      <stop offset="100%" stop-color="#6b5212"/>
    </linearGradient>
    <linearGradient id="fv3utvecklingeldnal4" x1="24" y1="4" x2="30" y2="20">
      <stop offset="0%" stop-color="#fff8e0"/>
      <stop offset="55%" stop-color="#ffb74d"/>
      <stop offset="100%" stop-color="#c97808"/>
    </linearGradient>
    <filter id="glv3utvecklingeldnal4" x="-40%" y="-40%" width="180%" height="180%">
      <feGaussianBlur stdDeviation="1.4" result="b"/>
      <feMerge><feMergeNode in="b"/><feMergeNode in="SourceGraphic"/></feMerge>
    </filter></defs>
  
  <circle cx="24" cy="24" r="22" fill="url(#dv3utvecklingeldnal4)" stroke="url(#gv3utvecklingeldnal4)" stroke-width="1.15" stroke-opacity="0.72"/>
  <circle cx="24" cy="24" r="20.5" stroke="url(#gv3utvecklingeldnal4)" stroke-opacity="0.08" stroke-width="0.35" fill="none"/>
  <g stroke="url(#gv3utvecklingeldnal4)" stroke-opacity="0.09" stroke-width="0.32">
    <line x1="24" y1="6.5" x2="24" y2="8.8" transform="rotate(0 24 24)"/><line x1="24" y1="6.5" x2="24" y2="8.8" transform="rotate(22.5 24 24)"/><line x1="24" y1="6.5" x2="24" y2="8.8" transform="rotate(45 24 24)"/><line x1="24" y1="6.5" x2="24" y2="8.8" transform="rotate(67.5 24 24)"/><line x1="24" y1="6.5" x2="24" y2="8.8" transform="rotate(90 24 24)"/><line x1="24" y1="6.5" x2="24" y2="8.8" transform="rotate(112.5 24 24)"/><line x1="24" y1="6.5" x2="24" y2="8.8" transform="rotate(135 24 24)"/><line x1="24" y1="6.5" x2="24" y2="8.8" transform="rotate(157.5 24 24)"/><line x1="24" y1="6.5" x2="24" y2="8.8" transform="rotate(180 24 24)"/><line x1="24" y1="6.5" x2="24" y2="8.8" transform="rotate(202.5 24 24)"/><line x1="24" y1="6.5" x2="24" y2="8.8" transform="rotate(225 24 24)"/><line x1="24" y1="6.5" x2="24" y2="8.8" transform="rotate(247.5 24 24)"/><line x1="24" y1="6.5" x2="24" y2="8.8" transform="rotate(270 24 24)"/><line x1="24" y1="6.5" x2="24" y2="8.8" transform="rotate(292.5 24 24)"/><line x1="24" y1="6.5" x2="24" y2="8.8" transform="rotate(315 24 24)"/><line x1="24" y1="6.5" x2="24" y2="8.8" transform="rotate(337.5 24 24)"/>
  </g>
  
  <path d="M24 5 L27 20 L24 23 L21 20 Z" fill="url(#fv3utvecklingeldnal4)" filter="url(#glv3utvecklingeldnal4)"/>
  <path d="M24 43 L21 28 L24 25 L27 28 Z" fill="url(#gv3utvecklingeldnal4)" fill-opacity="0.25"/>
  <circle cx="31" cy="14" r="2" fill="#fff8e0" opacity="0.9" filter="url(#glv3utvecklingeldnal4)"/>
  <circle cx="24" cy="24" r="16" stroke="url(#gv3utvecklingeldnal4)" stroke-opacity="0.12" stroke-width="0.35" fill="none"/>
  
  <path d="M24 28 Q20 20 22 14 Q24 10 26 14 Q28 20 24 28" stroke="url(#gv3utvecklingeldnal4)" stroke-width="0.75" fill="url(#gv3utvecklingeldnal4)" fill-opacity="0.2"/>
  <path d="M24 28 Q28 20 30 16 Q32 14 30 18 Q28 22 24 28" stroke="url(#gv3utvecklingeldnal4)" stroke-width="0.65" fill="url(#gv3utvecklingeldnal4)" fill-opacity="0.14"/>
  <path d="M24 28 Q16 20 14 16 Q12 14 14 18 Q16 22 24 28" stroke="url(#gv3utvecklingeldnal4)" stroke-width="0.65" fill="url(#gv3utvecklingeldnal4)" fill-opacity="0.14"/>
  <circle cx="24" cy="12" r="1.5" fill="url(#fv3utvecklingeldnal4)"/>
  
  <circle cx="24" cy="24" r="2.8" fill="url(#gv3utvecklingeldnal4)" stroke="#0a0a0a" stroke-width="0.45"/>
</svg>
