<?xml version="1.0" encoding="UTF-8"?>
<svg xmlns="http://www.w3.org/2000/svg" viewBox="0 0 48 48" fill="none" aria-hidden="true">
  <title>F5 — Aurora flat</title>
  <defs>
    <radialGradient id="drfamiljenauroraflat" cx="50%" cy="38%" r="68%">
      <stop offset="0%" stop-color="#3d3420"/>
      <stop offset="48%" stop-color="#141210"/>
      <stop offset="100%" stop-color="#080808"/>
    </radialGradient>
    <linearGradient id="grfamiljenauroraflat" x1="0" y1="0" x2="1" y2="1">
      <stop offset="0%" stop-color="#f5e6b8"/>
      <stop offset="45%" stop-color="#d4af37"/>
      <stop offset="100%" stop-color="#6b5212"/>
    </linearGradient>
    <linearGradient id="frfamiljenauroraflat" x1="24" y1="4" x2="30" y2="20">
      <stop offset="0%" stop-color="#fff8e0"/>
      <stop offset="55%" stop-color="#ffb74d"/>
      <stop offset="100%" stop-color="#c97808"/>
    </linearGradient>
    <filter id="glrfamiljenauroraflat" x="-50%" y="-50%" width="200%" height="200%">
      <feGaussianBlur stdDeviation="1.4" result="b"/>
      <feMerge><feMergeNode in="b"/><feMergeNode in="SourceGraphic"/></feMerge>
    </filter>
    <linearGradient id="rimrfamiljenauroraflat" x1="0" y1="0" x2="1" y2="1">
      <stop offset="0%" stop-color="#5eead4"/>
      <stop offset="40%" stop-color="#818cf8"/>
      <stop offset="75%" stop-color="#d4af37"/>
      <stop offset="100%" stop-color="#2dd4bf"/>
    </linearGradient></defs>
  
  <circle cx="24" cy="24" r="22" fill="url(#drfamiljenauroraflat)" stroke="url(#grfamiljenauroraflat)" stroke-width="1.15" stroke-opacity="0.72"/>
  <circle cx="24" cy="24" r="20.5" stroke="url(#grfamiljenauroraflat)" stroke-opacity="0.08" stroke-width="0.35" fill="none"/>
  
  <g stroke="url(#grfamiljenauroraflat)" stroke-opacity="0.1" stroke-width="0.32">
    <line x1="24" y1="6.5" x2="24" y2="9.2" transform="rotate(0 24 24)"/><line x1="24" y1="6.5" x2="24" y2="9.2" transform="rotate(22.5 24 24)"/><line x1="24" y1="6.5" x2="24" y2="9.2" transform="rotate(45 24 24)"/><line x1="24" y1="6.5" x2="24" y2="9.2" transform="rotate(67.5 24 24)"/><line x1="24" y1="6.5" x2="24" y2="9.2" transform="rotate(90 24 24)"/><line x1="24" y1="6.5" x2="24" y2="9.2" transform="rotate(112.5 24 24)"/><line x1="24" y1="6.5" x2="24" y2="9.2" transform="rotate(135 24 24)"/><line x1="24" y1="6.5" x2="24" y2="9.2" transform="rotate(157.5 24 24)"/><line x1="24" y1="6.5" x2="24" y2="9.2" transform="rotate(180 24 24)"/><line x1="24" y1="6.5" x2="24" y2="9.2" transform="rotate(202.5 24 24)"/><line x1="24" y1="6.5" x2="24" y2="9.2" transform="rotate(225 24 24)"/><line x1="24" y1="6.5" x2="24" y2="9.2" transform="rotate(247.5 24 24)"/><line x1="24" y1="6.5" x2="24" y2="9.2" transform="rotate(270 24 24)"/><line x1="24" y1="6.5" x2="24" y2="9.2" transform="rotate(292.5 24 24)"/><line x1="24" y1="6.5" x2="24" y2="9.2" transform="rotate(315 24 24)"/><line x1="24" y1="6.5" x2="24" y2="9.2" transform="rotate(337.5 24 24)"/>
  </g>
  
  <circle cx="24" cy="24" r="20.5" stroke="url(#rimrfamiljenauroraflat)" stroke-opacity="0.55" stroke-width="0.85" fill="none"/>
  <circle cx="24" cy="24" r="17" stroke="url(#grfamiljenauroraflat)" stroke-opacity="0.22" stroke-width="0.5" fill="none"/>
  <polygon points="24,9 26,17 34,17 27.5,21.5 29.5,29 24,25 18.5,29 20.5,21.5 14,17 22,17" fill="none" stroke="url(#grfamiljenauroraflat)" stroke-width="0.45" opacity="0.4"/>
  <path d="M24 8 L25.5 17 L24 21 L22.5 17 Z" fill="url(#frfamiljenauroraflat)" opacity="0.7"/>
  
  <circle cx="11" cy="14" r="2.8" stroke="url(#grfamiljenauroraflat)" stroke-width="0.55" fill="url(#grfamiljenauroraflat)" fill-opacity="0.22"/>
  <circle cx="24" cy="12" r="3.2" stroke="url(#grfamiljenauroraflat)" stroke-width="0.6" fill="url(#grfamiljenauroraflat)" fill-opacity="0.32"/>
  <circle cx="37" cy="14" r="2.8" stroke="url(#grfamiljenauroraflat)" stroke-width="0.55" fill="url(#grfamiljenauroraflat)" fill-opacity="0.22"/>
  <path d="M8 28 Q24 22 40 28 Q24 34 8 28" stroke="url(#grfamiljenauroraflat)" stroke-width="0.75" fill="url(#grfamiljenauroraflat)" fill-opacity="0.14"/>
  <circle cx="24" cy="22" r="1.2" fill="url(#frfamiljenauroraflat)"/>
  <circle cx="24" cy="24" r="2.8" fill="url(#grfamiljenauroraflat)" stroke="#0a0a0a" stroke-width="0.45"/>
</svg>
