<?xml version="1.0" encoding="UTF-8"?>
<svg xmlns="http://www.w3.org/2000/svg" viewBox="0 0 48 48" fill="none" aria-hidden="true">
  <title>V 2 — Stjärn-eld</title>
  <defs>
    <radialGradient id="dv3valvstjarna1" cx="50%" cy="38%" r="68%">
      <stop offset="0%" stop-color="#3d3420"/>
      <stop offset="48%" stop-color="#141210"/>
      <stop offset="100%" stop-color="#080808"/>
    </radialGradient>
    <linearGradient id="gv3valvstjarna1" x1="0" y1="0" x2="1" y2="1">
      <stop offset="0%" stop-color="#f5e6b8"/>
      <stop offset="45%" stop-color="#d4af37"/>
      <stop offset="100%" stop-color="#6b5212"/>
    </linearGradient>
    <linearGradient id="fv3valvstjarna1" x1="24" y1="4" x2="30" y2="20">
      <stop offset="0%" stop-color="#fff8e0"/>
      <stop offset="55%" stop-color="#ffb74d"/>
      <stop offset="100%" stop-color="#c97808"/>
    </linearGradient>
    <filter id="glv3valvstjarna1" x="-40%" y="-40%" width="180%" height="180%">
      <feGaussianBlur stdDeviation="1.4" result="b"/>
      <feMerge><feMergeNode in="b"/><feMergeNode in="SourceGraphic"/></feMerge>
    </filter></defs>
  
  <circle cx="24" cy="24" r="22" fill="url(#dv3valvstjarna1)" stroke="url(#gv3valvstjarna1)" stroke-width="1.15" stroke-opacity="0.72"/>
  <circle cx="24" cy="24" r="20.5" stroke="url(#gv3valvstjarna1)" stroke-opacity="0.08" stroke-width="0.35" fill="none"/>
  <g stroke="url(#gv3valvstjarna1)" stroke-opacity="0.09" stroke-width="0.32">
    <line x1="24" y1="6.5" x2="24" y2="8.8" transform="rotate(0 24 24)"/><line x1="24" y1="6.5" x2="24" y2="8.8" transform="rotate(22.5 24 24)"/><line x1="24" y1="6.5" x2="24" y2="8.8" transform="rotate(45 24 24)"/><line x1="24" y1="6.5" x2="24" y2="8.8" transform="rotate(67.5 24 24)"/><line x1="24" y1="6.5" x2="24" y2="8.8" transform="rotate(90 24 24)"/><line x1="24" y1="6.5" x2="24" y2="8.8" transform="rotate(112.5 24 24)"/><line x1="24" y1="6.5" x2="24" y2="8.8" transform="rotate(135 24 24)"/><line x1="24" y1="6.5" x2="24" y2="8.8" transform="rotate(157.5 24 24)"/><line x1="24" y1="6.5" x2="24" y2="8.8" transform="rotate(180 24 24)"/><line x1="24" y1="6.5" x2="24" y2="8.8" transform="rotate(202.5 24 24)"/><line x1="24" y1="6.5" x2="24" y2="8.8" transform="rotate(225 24 24)"/><line x1="24" y1="6.5" x2="24" y2="8.8" transform="rotate(247.5 24 24)"/><line x1="24" y1="6.5" x2="24" y2="8.8" transform="rotate(270 24 24)"/><line x1="24" y1="6.5" x2="24" y2="8.8" transform="rotate(292.5 24 24)"/><line x1="24" y1="6.5" x2="24" y2="8.8" transform="rotate(315 24 24)"/><line x1="24" y1="6.5" x2="24" y2="8.8" transform="rotate(337.5 24 24)"/>
  </g>
  
  <polygon points="24,5 25.8,12 33,12 27.2,16.5 29.5,24 24,19.5 18.5,24 20.8,16.5 15,12 22.2,12" fill="none" stroke="url(#gv3valvstjarna1)" stroke-width="0.45" stroke-opacity="0.35"/>
  <circle cx="30" cy="11" r="2.2" fill="#fff8e0" filter="url(#glv3valvstjarna1)"/>
  <path d="M24 7 L25.5 16 L24 20 L22.5 16 Z" fill="url(#fv3valvstjarna1)" opacity="0.55" filter="url(#glv3valvstjarna1)"/>
  
  <path d="M10 22 V34 H38 V22" stroke="url(#gv3valvstjarna1)" stroke-width="0.85" stroke-linejoin="round" fill="none"/>
  <path d="M10 22 Q24 8 38 22" stroke="url(#gv3valvstjarna1)" stroke-width="0.85" fill="none"/>
  <path d="M17 34 V26 H31 V34" stroke="url(#gv3valvstjarna1)" stroke-width="0.65"/>
  <circle cx="24" cy="20" r="1.1" fill="url(#fv3valvstjarna1)"/>
  
  <circle cx="24" cy="24" r="2.8" fill="url(#gv3valvstjarna1)" stroke="#0a0a0a" stroke-width="0.45"/>
</svg>
