<?xml version="1.0" encoding="UTF-8"?>
<svg xmlns="http://www.w3.org/2000/svg" viewBox="0 0 48 48" fill="none" aria-hidden="true">
  <title>M5 — Aurora flat</title>
  <defs>
    <radialGradient id="dkmpauroraflat" cx="50%" cy="38%" r="68%">
      <stop offset="0%" stop-color="#3d3420"/>
      <stop offset="48%" stop-color="#141210"/>
      <stop offset="100%" stop-color="#080808"/>
    </radialGradient>
    <linearGradient id="gkmpauroraflat" x1="0" y1="0" x2="1" y2="1">
      <stop offset="0%" stop-color="#f5e6b8"/>
      <stop offset="45%" stop-color="#d4af37"/>
      <stop offset="100%" stop-color="#6b5212"/>
    </linearGradient>
    <linearGradient id="fkmpauroraflat" x1="24" y1="4" x2="30" y2="20">
      <stop offset="0%" stop-color="#fff8e0"/>
      <stop offset="55%" stop-color="#ffb74d"/>
      <stop offset="100%" stop-color="#c97808"/>
    </linearGradient>
    <filter id="glkmpauroraflat" x="-50%" y="-50%" width="200%" height="200%">
      <feGaussianBlur stdDeviation="1.4" result="b"/>
      <feMerge><feMergeNode in="b"/><feMergeNode in="SourceGraphic"/></feMerge>
    </filter>
    <linearGradient id="rimkmpauroraflat" x1="0" y1="0" x2="1" y2="1">
      <stop offset="0%" stop-color="#5eead4"/>
      <stop offset="40%" stop-color="#818cf8"/>
      <stop offset="75%" stop-color="#d4af37"/>
      <stop offset="100%" stop-color="#2dd4bf"/>
    </linearGradient></defs>
  <circle cx="24" cy="24" r="22" fill="url(#dkmpauroraflat)" stroke="url(#gkmpauroraflat)" stroke-width="0.95" stroke-opacity="0.55"/>
  
  <circle cx="24" cy="24" r="20.5" stroke="url(#rimkmpauroraflat)" stroke-opacity="0.55" stroke-width="0.85" fill="none"/>
  <circle cx="24" cy="24" r="17" stroke="url(#gkmpauroraflat)" stroke-opacity="0.22" stroke-width="0.5" fill="none"/>
  <polygon points="24,9 26,17 34,17 27.5,21.5 29.5,29 24,25 18.5,29 20.5,21.5 14,17 22,17" fill="none" stroke="url(#gkmpauroraflat)" stroke-width="0.45" opacity="0.4"/>
  <path d="M24 8 L25.5 17 L24 21 L22.5 17 Z" fill="url(#fkmpauroraflat)" opacity="0.7"/>
  <polygon points="24,10 26,18 34,18 28,22.5 30,30 24,26 18,30 20,22.5 14,18 22,18" fill="url(#fkmpauroraflat)" fill-opacity="0.55" stroke="url(#gkmpauroraflat)" stroke-width="0.45"/>
  <circle cx="24" cy="22" r="2" fill="#fff8e0"/>
</svg>
