<svg xmlns="http://www.w3.org/2000/svg" viewBox="0 0 1024 1024" fill="none" aria-hidden="true">
  <title>P3  Aurora rim</title>
  <defs>
    <radialGradient id="p3bg" cx="50%" cy="40%" r="70%">
      <stop offset="0%" stop-color="#1e3a35"/>
      <stop offset="55%" stop-color="#0c1218"/>
      <stop offset="100%" stop-color="#040608"/>
    </radialGradient>
    <linearGradient id="p3g" x1="0" y1="0" x2="1" y2="1">
      <stop offset="0%" stop-color="#f5e6b8"/>
      <stop offset="50%" stop-color="#d4af37"/>
      <stop offset="100%" stop-color="#6b5212"/>
    </linearGradient>
    <linearGradient id="p3rim" x1="0" y1="0" x2="1" y2="1">
      <stop offset="0%" stop-color="#5eead4"/>
      <stop offset="35%" stop-color="#818cf8"/>
      <stop offset="70%" stop-color="#d4af37"/>
      <stop offset="100%" stop-color="#2dd4bf"/>
    </linearGradient>
    <filter id="p3glow" x="-40%" y="-40%" width="180%" height="180%">
      <feGaussianBlur stdDeviation="7" result="b"/>
      <feMerge><feMergeNode in="b"/><feMergeNode in="SourceGraphic"/></feMerge>
    </filter>
  </defs>
  <rect width="1024" height="1024" rx="224" fill="url(#p3bg)"/>
  <rect x="44" y="44" width="936" height="936" rx="204" stroke="url(#p3rim)" stroke-width="14" opacity="0.75"/>
  <rect x="96" y="96" width="832" height="832" rx="168" stroke="url(#p3g)" stroke-width="4" opacity="0.35"/>
  <circle cx="512" cy="512" r="320" stroke="url(#p3rim)" stroke-width="2" opacity="0.35"/>
  <g transform="translate(512 512)" fill="url(#p3g)">
    <path d="M0-255 L40-34 L0 0 L-40-34 Z" fill="#fff8e8" filter="url(#p3glow)"/>
    <path d="M0 255 L-36 36 L0 0 L36 36 Z" opacity="0.35"/>
    <path d="M-255 0 L-36-36 L0 0 L-36 36 Z" opacity="0.28"/>
    <path d="M255 0 L36 36 L0 0 L36-36 Z" opacity="0.28"/>
    <path d="M-180-180 L-50-50 L0 0 L-50-50 Z" opacity="0.2"/>
    <path d="M180-180 L50-50 L0 0 L50-50 Z" opacity="0.2"/>
    <path d="M180 180 L50 50 L0 0 L50 50 Z" opacity="0.18"/>
    <path d="M-180 180 L-50 50 L0 0 L-50 50 Z" opacity="0.18"/>
  </g>
  <circle cx="512" cy="512" r="50" fill="#080a0c" stroke="url(#p3g)" stroke-width="5"/>
  <circle cx="512" cy="512" r="24" fill="url(#p3g)"/>
  <circle cx="680" cy="344" r="16" fill="#fff8e0" filter="url(#p3glow)"/>
</svg>
