<svg xmlns="http://www.w3.org/2000/svg" viewBox="0 0 1024 1024" fill="none" aria-hidden="true">
  <title>P4  Sacred minimal</title>
  <defs>
    <radialGradient id="p4bg" cx="50%" cy="42%" r="68%">
      <stop offset="0%" stop-color="#1a1814"/>
      <stop offset="100%" stop-color="#030303"/>
    </radialGradient>
    <linearGradient id="p4g" x1="0" y1="0" x2="1" y2="1">
      <stop offset="0%" stop-color="#faf3e0"/>
      <stop offset="50%" stop-color="#d4af37"/>
      <stop offset="100%" stop-color="#8a6b1a"/>
    </linearGradient>
    <filter id="p4glow" x="-40%" y="-40%" width="180%" height="180%">
      <feGaussianBlur stdDeviation="6" result="b"/>
      <feMerge><feMergeNode in="b"/><feMergeNode in="SourceGraphic"/></feMerge>
    </filter>
  </defs>
  <rect width="1024" height="1024" rx="224" fill="url(#p4bg)"/>
  <circle cx="512" cy="512" r="400" stroke="url(#p4g)" stroke-width="3" opacity="0.45"/>
  <circle cx="512" cy="512" r="340" stroke="url(#p4g)" stroke-width="1.5" opacity="0.22"/>
  <circle cx="512" cy="512" r="280" stroke="url(#p4g)" stroke-width="1" stroke-dasharray="3 14" opacity="0.18"/>
  <g stroke="url(#p4g)" stroke-opacity="0.1" stroke-width="1.5">
    <line x1="512" y1="112" x2="512" y2="912"/><line x1="112" y1="512" x2="912" y2="512"/>
    <line x1="228" y1="228" x2="796" y2="796"/><line x1="796" y1="228" x2="228" y2="796"/>
  </g>
  <g transform="translate(512 512)" fill="url(#p4g)">
    <path d="M0-270 L22-28 L0 0 L-22-28 Z" fill="#fff8e8" filter="url(#p4glow)"/>
    <path d="M0 270 L-20 28 L0 0 L20 28 Z" opacity="0.3"/>
    <path d="M-270 0 L-20-28 L0 0 L-20 28 Z" opacity="0.25"/>
    <path d="M270 0 L20 28 L0 0 L20-28 Z" opacity="0.25"/>
  </g>
  <circle cx="512" cy="512" r="44" fill="#0a0a0a" stroke="url(#p4g)" stroke-width="4"/>
  <circle cx="512" cy="512" r="10" fill="url(#p4g)"/>
  <path d="M512 248 L518 268 L538 268 L522 280 L528 300 L512 288 L496 300 L502 280 L486 268 L506 268 Z" fill="url(#p4g)" opacity="0.9"/>
</svg>
