<svg xmlns="http://www.w3.org/2000/svg" viewBox="0 0 1024 1024" fill="none" aria-hidden="true">
  <title>P5  -  Bronze vintage</title>
  <defs>
    <radialGradient id="p5bg" cx="50%" cy="38%" r="72%">
      <stop offset="0%" stop-color="#2c2418"/>
      <stop offset="55%" stop-color="#12100c"/>
      <stop offset="100%" stop-color="#060504"/>
    </radialGradient>
    <linearGradient id="p5g" x1="0" y1="0" x2="1" y2="1">
      <stop offset="0%" stop-color="#e8d4a8"/>
      <stop offset="40%" stop-color="#b8860b"/>
      <stop offset="100%" stop-color="#6b4423"/>
    </linearGradient>
    <linearGradient id="p5copper" x1="512" y1="190" x2="512" y2="430">
      <stop offset="0%" stop-color="#ffe4c4"/>
      <stop offset="100%" stop-color="#cd7f32"/>
    </linearGradient>
    <filter id="p5glow" x="-40%" y="-40%" width="180%" height="180%">
      <feGaussianBlur stdDeviation="9" result="b"/>
      <feMerge><feMergeNode in="b"/><feMergeNode in="SourceGraphic"/></feMerge>
    </filter>
  </defs>
  <rect width="1024" height="1024" rx="224" fill="url(#p5bg)"/>
  <rect x="64" y="64" width="896" height="896" rx="188" stroke="url(#p5g)" stroke-width="16" opacity="0.6"/>
  <rect x="120" y="120" width="784" height="784" rx="156" stroke="url(#p5g)" stroke-width="4" opacity="0.3"/>
  <g fill="url(#p5g)" opacity="0.5">
    <circle cx="512" cy="64" r="10"/><circle cx="960" cy="512" r="10"/><circle cx="512" cy="960" r="10"/><circle cx="64" cy="512" r="10"/>
  </g>
  <circle cx="512" cy="512" r="330" stroke="url(#p5g)" stroke-width="5" opacity="0.35"/>
  <g transform="translate(512 512)" fill="url(#p5g)">
    <path d="M0-250 L38-30 L0 0 L-38-30 Z" fill="url(#p5copper)" filter="url(#p5glow)"/>
    <path d="M0 250 L-36 36 L0 0 L36 36 Z" opacity="0.42"/>
    <path d="M-250 0 L-36-36 L0 0 L-36 36 Z" opacity="0.34"/>
    <path d="M250 0 L36 36 L0 0 L36-36 Z" opacity="0.34"/>
    <path d="M-177-177 L-50-50 L0 0 L-50-50 Z" opacity="0.2"/>
    <path d="M177-177 L50-50 L0 0 L50-50 Z" opacity="0.2"/>
    <path d="M177 177 L50 50 L0 0 L50 50 Z" opacity="0.18"/>
    <path d="M-177 177 L-50 50 L0 0 L-50 50 Z" opacity="0.18"/>
  </g>
  <circle cx="512" cy="512" r="56" fill="#0c0a08" stroke="url(#p5g)" stroke-width="7"/>
  <circle cx="512" cy="512" r="30" fill="url(#p5copper)"/>
  <circle cx="512" cy="262" r="14" fill="#fff4e0" filter="url(#p5glow)"/>
</svg>
