<?xml version="1.0" encoding="UTF-8"?>
<svg xmlns="http://www.w3.org/2000/svg" viewBox="0 0 48 48" fill="none" aria-hidden="true">
  <title>A10 — Obsidian djup</title>
  <defs>
    <radialGradient id="drmabraobsidian3d" cx="50%" cy="38%" r="68%">
      <stop offset="0%" stop-color="#3d3420"/>
      <stop offset="48%" stop-color="#141210"/>
      <stop offset="100%" stop-color="#080808"/>
    </radialGradient>
    <linearGradient id="grmabraobsidian3d" x1="0" y1="0" x2="1" y2="1">
      <stop offset="0%" stop-color="#f5e6b8"/>
      <stop offset="45%" stop-color="#d4af37"/>
      <stop offset="100%" stop-color="#6b5212"/>
    </linearGradient>
    <linearGradient id="frmabraobsidian3d" x1="24" y1="4" x2="30" y2="20">
      <stop offset="0%" stop-color="#fff8e0"/>
      <stop offset="55%" stop-color="#ffb74d"/>
      <stop offset="100%" stop-color="#c97808"/>
    </linearGradient>
    <filter id="glrmabraobsidian3d" x="-50%" y="-50%" width="200%" height="200%">
      <feGaussianBlur stdDeviation="1.4" result="b"/>
      <feMerge><feMergeNode in="b"/><feMergeNode in="SourceGraphic"/></feMerge>
    </filter>
    <linearGradient id="rimrmabraobsidian3d" x1="0" y1="0" x2="1" y2="1">
      <stop offset="0%" stop-color="#5eead4"/>
      <stop offset="40%" stop-color="#818cf8"/>
      <stop offset="75%" stop-color="#d4af37"/>
      <stop offset="100%" stop-color="#2dd4bf"/>
    </linearGradient>
    <filter id="bvrmabraobsidian3d" x="-30%" y="-30%" width="160%" height="160%">
      <feDropShadow dx="0" dy="1.2" stdDeviation="0.8" flood-color="#000" flood-opacity="0.55"/>
      <feDropShadow dx="0" dy="-0.6" stdDeviation="0.4" flood-color="#fff8e0" flood-opacity="0.12"/>
    </filter></defs>
  
  <circle cx="24" cy="24" r="22" fill="url(#drmabraobsidian3d)" stroke="url(#grmabraobsidian3d)" stroke-width="1.15" stroke-opacity="0.72"/>
  <circle cx="24" cy="24" r="20.5" stroke="url(#grmabraobsidian3d)" stroke-opacity="0.08" stroke-width="0.35" fill="none"/>
  
  <g stroke="url(#grmabraobsidian3d)" stroke-opacity="0.1" stroke-width="0.32">
    <line x1="24" y1="6.5" x2="24" y2="9.2" transform="rotate(0 24 24)"/><line x1="24" y1="6.5" x2="24" y2="9.2" transform="rotate(22.5 24 24)"/><line x1="24" y1="6.5" x2="24" y2="9.2" transform="rotate(45 24 24)"/><line x1="24" y1="6.5" x2="24" y2="9.2" transform="rotate(67.5 24 24)"/><line x1="24" y1="6.5" x2="24" y2="9.2" transform="rotate(90 24 24)"/><line x1="24" y1="6.5" x2="24" y2="9.2" transform="rotate(112.5 24 24)"/><line x1="24" y1="6.5" x2="24" y2="9.2" transform="rotate(135 24 24)"/><line x1="24" y1="6.5" x2="24" y2="9.2" transform="rotate(157.5 24 24)"/><line x1="24" y1="6.5" x2="24" y2="9.2" transform="rotate(180 24 24)"/><line x1="24" y1="6.5" x2="24" y2="9.2" transform="rotate(202.5 24 24)"/><line x1="24" y1="6.5" x2="24" y2="9.2" transform="rotate(225 24 24)"/><line x1="24" y1="6.5" x2="24" y2="9.2" transform="rotate(247.5 24 24)"/><line x1="24" y1="6.5" x2="24" y2="9.2" transform="rotate(270 24 24)"/><line x1="24" y1="6.5" x2="24" y2="9.2" transform="rotate(292.5 24 24)"/><line x1="24" y1="6.5" x2="24" y2="9.2" transform="rotate(315 24 24)"/><line x1="24" y1="6.5" x2="24" y2="9.2" transform="rotate(337.5 24 24)"/>
  </g>
  
  <circle cx="24" cy="24" r="19" stroke="url(#grmabraobsidian3d)" stroke-opacity="0.35" stroke-width="0.5" fill="none"/>
  <circle cx="24" cy="24" r="15.5" stroke="url(#grmabraobsidian3d)" stroke-opacity="0.22" stroke-width="0.4" stroke-dasharray="3 5" fill="none"/>
  <circle cx="24" cy="24" r="11.5" stroke="url(#grmabraobsidian3d)" stroke-opacity="0.14" stroke-width="0.35" fill="none"/>
  <path d="M24 6 L27.5 20 L24 24 L20.5 20 Z" fill="url(#frmabraobsidian3d)" filter="url(#glrmabraobsidian3d)"/>
  <ellipse cx="24" cy="26" rx="8" ry="3" fill="#000" opacity="0.35" filter="url(#bvrmabraobsidian3d)"/>
  
  <path d="M24 30 Q18 22 20 16 Q22 12 24 14 Q26 12 28 16 Q30 22 24 30" stroke="url(#grmabraobsidian3d)" stroke-width="0.85" fill="url(#grmabraobsidian3d)" fill-opacity="0.2"/>
  <path d="M24 14 L24 10 M20 16 L17 14 M28 16 L31 14" stroke="url(#grmabraobsidian3d)" stroke-width="0.45" stroke-linecap="round"/>
  <circle cx="24" cy="26" r="1.8" fill="url(#frmabraobsidian3d)"/>
  <circle cx="24" cy="24" r="2.8" fill="url(#grmabraobsidian3d)" stroke="#0a0a0a" stroke-width="0.45"/>
</svg>
