<?xml version="1.0" encoding="UTF-8"?>
<svg xmlns="http://www.w3.org/2000/svg" viewBox="0 0 48 48" fill="none" aria-hidden="true">
  <title>A2 — Helros 3D</title>
  <defs>
    <radialGradient id="drmabrahelros3d" cx="50%" cy="38%" r="68%">
      <stop offset="0%" stop-color="#3d3420"/>
      <stop offset="48%" stop-color="#141210"/>
      <stop offset="100%" stop-color="#080808"/>
    </radialGradient>
    <linearGradient id="grmabrahelros3d" x1="0" y1="0" x2="1" y2="1">
      <stop offset="0%" stop-color="#f5e6b8"/>
      <stop offset="45%" stop-color="#d4af37"/>
      <stop offset="100%" stop-color="#6b5212"/>
    </linearGradient>
    <linearGradient id="frmabrahelros3d" x1="24" y1="4" x2="30" y2="20">
      <stop offset="0%" stop-color="#fff8e0"/>
      <stop offset="55%" stop-color="#ffb74d"/>
      <stop offset="100%" stop-color="#c97808"/>
    </linearGradient>
    <filter id="glrmabrahelros3d" x="-50%" y="-50%" width="200%" height="200%">
      <feGaussianBlur stdDeviation="1.4" result="b"/>
      <feMerge><feMergeNode in="b"/><feMergeNode in="SourceGraphic"/></feMerge>
    </filter>
    <linearGradient id="rimrmabrahelros3d" x1="0" y1="0" x2="1" y2="1">
      <stop offset="0%" stop-color="#5eead4"/>
      <stop offset="40%" stop-color="#818cf8"/>
      <stop offset="75%" stop-color="#d4af37"/>
      <stop offset="100%" stop-color="#2dd4bf"/>
    </linearGradient>
    <filter id="bvrmabrahelros3d" x="-30%" y="-30%" width="160%" height="160%">
      <feDropShadow dx="0" dy="1.2" stdDeviation="0.8" flood-color="#000" flood-opacity="0.55"/>
      <feDropShadow dx="0" dy="-0.6" stdDeviation="0.4" flood-color="#fff8e0" flood-opacity="0.12"/>
    </filter></defs>
  
  <circle cx="24" cy="24" r="22" fill="url(#drmabrahelros3d)" stroke="url(#grmabrahelros3d)" stroke-width="1.15" stroke-opacity="0.72"/>
  <circle cx="24" cy="24" r="20.5" stroke="url(#grmabrahelros3d)" stroke-opacity="0.08" stroke-width="0.35" fill="none"/>
  
  <g stroke="url(#grmabrahelros3d)" stroke-opacity="0.1" stroke-width="0.32">
    <line x1="24" y1="6.5" x2="24" y2="9.2" transform="rotate(0 24 24)"/><line x1="24" y1="6.5" x2="24" y2="9.2" transform="rotate(22.5 24 24)"/><line x1="24" y1="6.5" x2="24" y2="9.2" transform="rotate(45 24 24)"/><line x1="24" y1="6.5" x2="24" y2="9.2" transform="rotate(67.5 24 24)"/><line x1="24" y1="6.5" x2="24" y2="9.2" transform="rotate(90 24 24)"/><line x1="24" y1="6.5" x2="24" y2="9.2" transform="rotate(112.5 24 24)"/><line x1="24" y1="6.5" x2="24" y2="9.2" transform="rotate(135 24 24)"/><line x1="24" y1="6.5" x2="24" y2="9.2" transform="rotate(157.5 24 24)"/><line x1="24" y1="6.5" x2="24" y2="9.2" transform="rotate(180 24 24)"/><line x1="24" y1="6.5" x2="24" y2="9.2" transform="rotate(202.5 24 24)"/><line x1="24" y1="6.5" x2="24" y2="9.2" transform="rotate(225 24 24)"/><line x1="24" y1="6.5" x2="24" y2="9.2" transform="rotate(247.5 24 24)"/><line x1="24" y1="6.5" x2="24" y2="9.2" transform="rotate(270 24 24)"/><line x1="24" y1="6.5" x2="24" y2="9.2" transform="rotate(292.5 24 24)"/><line x1="24" y1="6.5" x2="24" y2="9.2" transform="rotate(315 24 24)"/><line x1="24" y1="6.5" x2="24" y2="9.2" transform="rotate(337.5 24 24)"/>
  </g>
  
  <circle cx="24" cy="24" r="18" stroke="url(#grmabrahelros3d)" stroke-opacity="0.3" stroke-width="0.55" stroke-dasharray="2 3" fill="none"/>
  <circle cx="24" cy="24" r="14" stroke="url(#grmabrahelros3d)" stroke-opacity="0.16" stroke-width="0.45" fill="none"/>
  <g stroke="url(#grmabrahelros3d)" stroke-opacity="0.12" stroke-width="0.35">
    <line x1="24" y1="8" x2="24" y2="40"/><line x1="8" y1="24" x2="40" y2="24"/>
    <line x1="12.7" y1="12.7" x2="35.3" y2="35.3"/><line x1="35.3" y1="12.7" x2="12.7" y2="35.3"/>
  </g>
  <circle cx="32" cy="14" r="1.6" fill="#fff8e0" opacity="0.85" filter="url(#glrmabrahelros3d)"/>
  <path d="M32 14 L30.6 15.4 L32 16.8 L33.4 15.4 Z" fill="url(#frmabrahelros3d)" opacity="0.85" filter="url(#bvrmabrahelros3d)"/>
  
  <path d="M24 30 Q18 22 20 16 Q22 12 24 14 Q26 12 28 16 Q30 22 24 30" stroke="url(#grmabrahelros3d)" stroke-width="0.85" fill="url(#grmabrahelros3d)" fill-opacity="0.2"/>
  <path d="M24 14 L24 10 M20 16 L17 14 M28 16 L31 14" stroke="url(#grmabrahelros3d)" stroke-width="0.45" stroke-linecap="round"/>
  <circle cx="24" cy="26" r="1.8" fill="url(#frmabrahelros3d)"/>
  <circle cx="24" cy="24" r="2.8" fill="url(#grmabrahelros3d)" stroke="#0a0a0a" stroke-width="0.45"/>
</svg>
