<svg xmlns="http://www.w3.org/2000/svg" viewBox="0 0 512 512" fill="none">
  <defs>
    <linearGradient id="b2rim" x1="0" y1="0" x2="1" y2="1">
      <stop offset="0%" stop-color="#5eead4"/>
      <stop offset="35%" stop-color="#818cf8"/>
      <stop offset="70%" stop-color="#d4af37"/>
      <stop offset="100%" stop-color="#2dd4bf"/>
    </linearGradient>
    <radialGradient id="b2core" cx="50%" cy="45%" r="60%">
      <stop offset="0%" stop-color="#1a1a24"/>
      <stop offset="100%" stop-color="#050508"/>
    </radialGradient>
    <linearGradient id="b2g" x1="0" y1="0" x2="0" y2="1">
      <stop offset="0%" stop-color="#f5e6b8"/>
      <stop offset="100%" stop-color="#b8942a"/>
    </linearGradient>
  </defs>
  <rect width="512" height="512" rx="112" fill="url(#b2core)"/>
  <rect x="14" y="14" width="484" height="484" rx="106" stroke="url(#b2rim)" stroke-width="5" fill="none" opacity="0.85"/>
  <circle cx="256" cy="256" r="170" stroke="url(#b2g)" stroke-width="2.5" fill="none" opacity="0.5"/>
  <polygon points="256,96 274,196 376,196 296,256 326,356 256,306 186,356 216,256 136,196 238,196" fill="none" stroke="url(#b2g)" stroke-width="2" opacity="0.45"/>
  <path d="M256 110 L268 230 L256 256 L244 230 Z" fill="url(#b2g)"/>
  <path d="M256 402 L244 282 L256 256 L268 282 Z" fill="url(#b2g)" opacity="0.3"/>
  <circle cx="256" cy="256" r="24" fill="#0a0a0a" stroke="url(#b2g)" stroke-width="3"/>
</svg>
