<svg xmlns="http://www.w3.org/2000/svg" viewBox="0 0 48 48" fill="none">
  <title>D1 — D1 Helros (v2-premium)</title>

  <defs>
    <radialGradient id="v4d10xd1disk" cx="50%" cy="38%" r="65%">
      <stop offset="0%" stop-color="#3d3420"/>
      <stop offset="55%" stop-color="#141210"/>
      <stop offset="100%" stop-color="#080808"/>
    </radialGradient>
    <linearGradient id="v4d10xd1gold" x1="0" y1="0" x2="1" y2="1">
      <stop offset="0%" stop-color="#f5e6b8"/>
      <stop offset="45%" stop-color="#d4af37"/>
      <stop offset="100%" stop-color="#8a6b1a"/>
    </linearGradient>
    <linearGradient id="v4d10xd1fire" x1="24" y1="4" x2="30" y2="18">
      <stop offset="0%" stop-color="#fff3c4"/>
      <stop offset="100%" stop-color="#e8a020"/>
    </linearGradient>
    <filter id="v4d10xd1glow" x="-30%" y="-30%" width="160%" height="160%">
      <feGaussianBlur stdDeviation="1.2" result="b"/>
      <feMerge><feMergeNode in="b"/><feMergeNode in="SourceGraphic"/></feMerge>
    </filter>
  </defs>
  <circle cx="24" cy="24" r="22" fill="url(#v4d10xd1disk)" stroke="url(#v4d10xd1gold)" stroke-width="1.2" stroke-opacity="0.7"/>
  <circle cx="24" cy="24" r="18" stroke="url(#v4d10xd1gold)" stroke-opacity="0.25" stroke-width="0.6" stroke-dasharray="2 3"/>
  <circle cx="24" cy="24" r="14" stroke="url(#v4d10xd1gold)" stroke-opacity="0.15" stroke-width="0.5"/>
  <g stroke="url(#v4d10xd1gold)" stroke-opacity="0.12" stroke-width="0.4">
    <line x1="24" y1="8" x2="24" y2="40"/><line x1="8" y1="24" x2="40" y2="24"/>
    <line x1="12.7" y1="12.7" x2="35.3" y2="35.3"/><line x1="35.3" y1="12.7" x2="12.7" y2="35.3"/>
  </g>
  <g fill="url(#v4d10xd1gold)">
    <path d="M24 6 L26.4 18.5 L24 22 L21.6 18.5 Z" fill="url(#v4d10xd1fire)" filter="url(#v4d10xd1glow)"/>
    <path d="M24 42 L21.6 29.5 L24 26 L26.4 29.5 Z" opacity="0.35"/>
    <path d="M6 24 L18.5 21.6 L22 24 L18.5 26.4 Z" opacity="0.28"/>
    <path d="M42 24 L29.5 26.4 L26 24 L29.5 21.6 Z" opacity="0.28"/>
    <path d="M11 11 L17.5 17.5 L24 24 L17.5 17.5 Z" opacity="0.22"/>
    <path d="M37 11 L30.5 17.5 L24 24 L30.5 17.5 Z" opacity="0.22"/>
    <path d="M37 37 L30.5 30.5 L24 24 L30.5 30.5 Z" opacity="0.2"/>
    <path d="M11 37 L17.5 30.5 L24 24 L17.5 30.5 Z" opacity="0.2"/>
  </g>
  <circle cx="32" cy="14" r="2" fill="#fff8e0" opacity="0.9" filter="url(#v4d10xd1glow)"/>
  <path d="M32 14 L30 16 L32 18 L34 16 Z" fill="url(#v4d10xd1fire)" opacity="0.85"/>
  <circle cx="24" cy="24" r="2.5" fill="url(#v4d10xd1gold)" stroke="#0a0a0a" stroke-width="0.5"/>
</svg>