<svg xmlns="http://www.w3.org/2000/svg" viewBox="0 0 48 48" fill="none">
  <circle cx="24" cy="24" r="21" stroke="currentColor" stroke-opacity="0.14" stroke-width="0.6"/>
  <path fill="currentColor" d="M24 5 L26.8 19.5 L24 24 L21.2 19.5 Z"/>
  <path fill="currentColor" fill-opacity="0.32" d="M24 43 L21.2 28.5 L24 24 L26.8 28.5 Z"/>
  <path fill="currentColor" fill-opacity="0.26" d="M5 24 L19.5 21.2 L24 24 L19.5 26.8 Z"/>
  <path fill="currentColor" fill-opacity="0.26" d="M43 24 L28.5 26.8 L24 24 L28.5 21.2 Z"/>
  <path fill="currentColor" fill-opacity="0.38" d="M11 11 L18 18 L24 24 L18 18 Z"/>
  <path fill="currentColor" fill-opacity="0.22" d="M37 11 L30 18 L24 24 L30 18 Z"/>
  <path fill="currentColor" fill-opacity="0.22" d="M37 37 L30 30 L24 24 L30 30 Z"/>
  <path fill="currentColor" fill-opacity="0.22" d="M11 37 L18 30 L24 24 L18 30 Z"/>
  <circle cx="24" cy="24" r="2.25" fill="currentColor" fill-opacity="0.55"/>
</svg>
