<?xml version="1.0" encoding="UTF-8"?>
<svg xmlns="http://www.w3.org/2000/svg" viewBox="0 0 390 844" width="390" height="844">
  <title>Obsidian stjärnhimmel</title>
  <defs>
    
      <linearGradient id="k03bg" x1="0" y1="0" x2="0" y2="1">
        <stop offset="0%" stop-color="#080810"/>
        <stop offset="100%" stop-color="#141018"/>
      </linearGradient>
    <linearGradient id="needle-K03-obsidian-stjarna" x1="0" y1="0" x2="0" y2="1">
      <stop offset="0%" stop-color="#fff8e7"/>
      <stop offset="100%" stop-color="#e8dcc8"/>
    </linearGradient>
    <filter id="glow-K03-obsidian-stjarna" x="-20%" y="-20%" width="140%" height="140%">
      <feGaussianBlur stdDeviation="3" result="b"/>
      <feMerge><feMergeNode in="b"/><feMergeNode in="SourceGraphic"/></feMerge>
    </filter>
  </defs>
  <rect width="390" height="844" fill="url(#k03bg)"/>
  <circle cx="0" cy="0" r="0.8" fill="#fff" opacity="0.15"/><circle cx="47" cy="31" r="0.8" fill="#fff" opacity="0.22999999999999998"/><circle cx="94" cy="62" r="0.8" fill="#fff" opacity="0.31"/><circle cx="141" cy="93" r="0.8" fill="#fff" opacity="0.39"/><circle cx="188" cy="124" r="0.8" fill="#fff" opacity="0.47"/><circle cx="235" cy="155" r="0.8" fill="#fff" opacity="0.15"/><circle cx="282" cy="186" r="0.8" fill="#fff" opacity="0.22999999999999998"/><circle cx="329" cy="217" r="0.8" fill="#fff" opacity="0.31"/><circle cx="376" cy="248" r="0.8" fill="#fff" opacity="0.39"/><circle cx="33" cy="279" r="0.8" fill="#fff" opacity="0.47"/><circle cx="80" cy="310" r="0.8" fill="#fff" opacity="0.15"/><circle cx="127" cy="341" r="0.8" fill="#fff" opacity="0.22999999999999998"/><circle cx="174" cy="372" r="0.8" fill="#fff" opacity="0.31"/><circle cx="221" cy="403" r="0.8" fill="#fff" opacity="0.39"/><circle cx="268" cy="434" r="0.8" fill="#fff" opacity="0.47"/><circle cx="315" cy="465" r="0.8" fill="#fff" opacity="0.15"/><circle cx="362" cy="496" r="0.8" fill="#fff" opacity="0.22999999999999998"/><circle cx="19" cy="20.600000000000023" r="0.8" fill="#fff" opacity="0.31"/><circle cx="66" cy="51.60000000000002" r="0.8" fill="#fff" opacity="0.39"/><circle cx="113" cy="82.60000000000002" r="0.8" fill="#fff" opacity="0.47"/><circle cx="160" cy="113.60000000000002" r="0.8" fill="#fff" opacity="0.15"/><circle cx="207" cy="144.60000000000002" r="0.8" fill="#fff" opacity="0.22999999999999998"/><circle cx="254" cy="175.60000000000002" r="0.8" fill="#fff" opacity="0.31"/><circle cx="301" cy="206.60000000000002" r="0.8" fill="#fff" opacity="0.39"/><circle cx="348" cy="237.60000000000002" r="0.8" fill="#fff" opacity="0.47"/><circle cx="5" cy="268.6" r="0.8" fill="#fff" opacity="0.15"/><circle cx="52" cy="299.6" r="0.8" fill="#fff" opacity="0.22999999999999998"/><circle cx="99" cy="330.6" r="0.8" fill="#fff" opacity="0.31"/><circle cx="146" cy="361.6" r="0.8" fill="#fff" opacity="0.39"/><circle cx="193" cy="392.6" r="0.8" fill="#fff" opacity="0.47"/><circle cx="240" cy="423.6" r="0.8" fill="#fff" opacity="0.15"/><circle cx="287" cy="454.6" r="0.8" fill="#fff" opacity="0.22999999999999998"/><circle cx="334" cy="485.6" r="0.8" fill="#fff" opacity="0.31"/><circle cx="381" cy="10.200000000000045" r="0.8" fill="#fff" opacity="0.39"/><circle cx="38" cy="41.200000000000045" r="0.8" fill="#fff" opacity="0.47"/><circle cx="85" cy="72.20000000000005" r="0.8" fill="#fff" opacity="0.15"/><circle cx="132" cy="103.20000000000005" r="0.8" fill="#fff" opacity="0.22999999999999998"/><circle cx="179" cy="134.20000000000005" r="0.8" fill="#fff" opacity="0.31"/><circle cx="226" cy="165.20000000000005" r="0.8" fill="#fff" opacity="0.39"/><circle cx="273" cy="196.20000000000005" r="0.8" fill="#fff" opacity="0.47"/>
  <text x="195" y="52" text-anchor="middle" fill="#e8dcc8" font-family="Georgia,serif" font-size="11" letter-spacing="3">STYR MED MENING</text>
  <text x="195" y="68" text-anchor="middle" fill="#e8dcc8" font-size="9" opacity="0.75" font-family="Inter,sans-serif">Lev med riktning</text>
  <rect x="318" y="38" width="52" height="24" rx="6" fill="rgba(0,0,0,0.5)" stroke="#9a8b6a" stroke-width="1"/>
  <text x="344" y="54" text-anchor="middle" fill="#e8dcc8" font-size="11" font-family="Inter,sans-serif">128</text>
  <path d="M195,180 A 90 90 0 0 1 285 214" fill="none" id="arc-K03-obsidian-stjarna"/>
  <text fill="#e8dcc8" font-family="Georgia,serif" font-size="13" letter-spacing="4">
    <textPath href="#arc-K03-obsidian-stjarna" startOffset="12%">KOGNITIV SKÖLD</textPath>
  </text>
  <g filter="url(#glow-K03-obsidian-stjarna)">
    
  <g id="shield-K03-obsidian-stjarna">
    <circle cx="195" cy="340" r="126" fill="none" stroke="#9a8b6a" opacity="0.35" stroke-width="1"/>
    <circle cx="195" cy="340" r="118" fill="#121018" stroke="#9a8b6a" stroke-width="2.5" opacity="0.95"/>
    <circle cx="195" cy="340" r="106" fill="none" stroke="#9a8b6a" stroke-width="1" opacity="0.5" stroke-dasharray="4 6"/>
    <line x1="195" y1="340" x2="295" y2="340" stroke="#9a8b6a" stroke-width="0.6" opacity="0.35"/><line x1="195" y1="340" x2="265.71067811865476" y2="410.71067811865476" stroke="#9a8b6a" stroke-width="0.6" opacity="0.35"/><line x1="195" y1="340" x2="195" y2="440" stroke="#9a8b6a" stroke-width="0.6" opacity="0.35"/><line x1="195" y1="340" x2="124.28932188134526" y2="410.71067811865476" stroke="#9a8b6a" stroke-width="0.6" opacity="0.35"/><line x1="195" y1="340" x2="95" y2="340" stroke="#9a8b6a" stroke-width="0.6" opacity="0.35"/><line x1="195" y1="340" x2="124.28932188134523" y2="269.28932188134524" stroke="#9a8b6a" stroke-width="0.6" opacity="0.35"/><line x1="195" y1="340" x2="194.99999999999997" y2="240" stroke="#9a8b6a" stroke-width="0.6" opacity="0.35"/><line x1="195" y1="340" x2="265.71067811865476" y2="269.28932188134524" stroke="#9a8b6a" stroke-width="0.6" opacity="0.35"/>
    <polygon points="195,250 185,348 205,348" fill="url(#needle-K03-obsidian-stjarna)" stroke="#e8dcc8" stroke-width="0.8"/>
    <circle cx="195" cy="340" r="10" fill="#080808" stroke="#e8dcc8" stroke-width="1.5"/>
    <circle cx="195" cy="242" r="3" fill="#fff8e7" opacity="0.9"/>
  </g>
    <g transform="translate(113,340) rotate(-90)" opacity="0.85">
        <path d="M-6,-10 L6,-10 L0,8 Z" fill="none" stroke="#e8dcc8" stroke-width="1.2" transform="scale(0.9)"/>
      </g><g transform="translate(195,258) rotate(0)" opacity="0.85">
        <path d="M-8,-6 h16 v12 h-16 z M-4,-2 h8" fill="none" stroke="#e8dcc8" stroke-width="1.2" transform="scale(0.9)"/>
      </g><g transform="translate(277,340) rotate(90)" opacity="0.85">
        <path d="M-10,4 h20 M0,4 v-8 M-6,4 h12" fill="none" stroke="#e8dcc8" stroke-width="1.2" transform="scale(0.9)"/>
      </g><g transform="translate(195,422) rotate(180)" opacity="0.85">
        <path d="M0,6 Q-6,-4 0,-10 Q6,-4 0,6" fill="none" stroke="#e8dcc8" stroke-width="1.2" transform="scale(0.9)"/>
      </g>
  </g>
  
  <g transform="translate(24,250)">
    <rect x="0" y="0" width="77" height="22" rx="4" fill="rgba(0,0,0,0.55)" stroke="#9a8b6a" stroke-width="1"/>
    <rect x="6" y="6" width="10" height="10" rx="2" fill="none" stroke="#e8dcc8" stroke-width="1"/>
    <path d="M8 11 L10 13 L14 9" stroke="#e8dcc8" stroke-width="1" fill="none"/>
    <text x="22" y="15" fill="#e8dcc8" font-family="Inter,sans-serif" font-size="9">rutiner</text>
  </g>
  
  <g transform="translate(24,360)">
    <rect x="0" y="0" width="70" height="22" rx="4" fill="rgba(0,0,0,0.55)" stroke="#9a8b6a" stroke-width="1"/>
    <rect x="6" y="6" width="10" height="10" rx="2" fill="none" stroke="#e8dcc8" stroke-width="1"/>
    <path d="M8 11 L10 13 L14 9" stroke="#e8dcc8" stroke-width="1" fill="none"/>
    <text x="22" y="15" fill="#e8dcc8" font-family="Inter,sans-serif" font-size="9">budget</text>
  </g>
  <text x="195" y="494" text-anchor="middle" fill="#e8dcc8" font-size="9" font-family="Inter,sans-serif">personlig utveckling</text>
  <g transform="translate(20, 684)">
    <rect width="350" height="72" rx="12" fill="rgba(8,12,18,0.78)" stroke="#9a8b6a" stroke-width="2"/>
    <circle cx="36" cy="36" r="14" fill="none" stroke="#e8dcc8" stroke-width="1.2"/>
    <polygon points="36,26 40,38 32,38" fill="#e8dcc8" opacity="0.8"/>
    <text x="58" y="28" fill="#e8dcc8" font-family="Inter,sans-serif" font-size="11" font-weight="600">Dagens riktning</text>
    <text x="58" y="48" fill="#e8e4dc" font-size="9" font-family="Inter,sans-serif">Små steg i rätt riktning skapar det liv</text>
    <text x="58" y="60" fill="#e8e4dc" font-size="9" font-family="Inter,sans-serif">du drömmer om.</text>
    <path d="M330 36 L338 36 M334 32 L338 36 L334 40" stroke="#e8dcc8" stroke-width="1.5" fill="none"/>
  </g>
  <g transform="translate(155, 796)">
    <circle cx="0" cy="0" r="3" fill="#4a4a4a"/><circle cx="16" cy="0" r="3" fill="#e8dcc8"/><circle cx="32" cy="0" r="3" fill="#4a4a4a"/><circle cx="48" cy="0" r="3" fill="#4a4a4a"/><circle cx="64" cy="0" r="3" fill="#4a4a4a"/>
  </g>
  <text x="12" y="836" fill="#6b7280" font-size="8" font-family="monospace">K03-obsidian-stjarna</text>
</svg>