<?xml version="1.0" encoding="UTF-8"?>
<svg xmlns="http://www.w3.org/2000/svg" viewBox="0 0 390 844" width="390" height="844">
  <title>Hamn ember strand</title>
  <defs>
    
      <linearGradient id="k04bg" x1="0" y1="0" x2="0" y2="1">
        <stop offset="0%" stop-color="#3a2010"/>
        <stop offset="55%" stop-color="#5a3018"/>
        <stop offset="100%" stop-color="#120a08"/>
      </linearGradient>
      <radialGradient id="k04bgglow" cx="50%" cy="80%" r="50%">
        <stop offset="0%" stop-color="#ff8a50" stop-opacity="0.4"/>
        <stop offset="100%" stop-color="#ff8a50" stop-opacity="0"/>
      </radialGradient>
    <linearGradient id="needle-K04-hamn-ember" x1="0" y1="0" x2="0" y2="1">
      <stop offset="0%" stop-color="#ff8a50"/>
      <stop offset="100%" stop-color="#ffd9a8"/>
    </linearGradient>
    <filter id="glow-K04-hamn-ember" x="-20%" y="-20%" width="140%" height="140%">
      <feGaussianBlur stdDeviation="3" result="b"/>
      <feMerge><feMergeNode in="b"/><feMergeNode in="SourceGraphic"/></feMerge>
    </filter>
  </defs>
  <rect width="390" height="844" fill="url(#k04bg)"/>
  <rect width="390" height="844" fill="url(#k04bgglow)"/>
  <text x="195" y="52" text-anchor="middle" fill="#ffd9a8" font-family="Georgia,serif" font-size="11" letter-spacing="3">STYR MED MENING</text>
  <text x="195" y="68" text-anchor="middle" fill="#ffd9a8" font-size="9" opacity="0.75" font-family="Inter,sans-serif">Lev med riktning</text>
  <rect x="318" y="38" width="52" height="24" rx="6" fill="rgba(0,0,0,0.5)" stroke="#c97b4a" stroke-width="1"/>
  <text x="344" y="54" text-anchor="middle" fill="#ffd9a8" font-size="11" font-family="Inter,sans-serif">128</text>
  <path d="M195,180 A 90 90 0 0 1 285 214" fill="none" id="arc-K04-hamn-ember"/>
  <text fill="#ffd9a8" font-family="Georgia,serif" font-size="13" letter-spacing="4">
    <textPath href="#arc-K04-hamn-ember" startOffset="12%">KOGNITIV SKÖLD</textPath>
  </text>
  <g filter="url(#glow-K04-hamn-ember)">
    
  <g id="shield-K04-hamn-ember">
    <circle cx="195" cy="340" r="126" fill="none" stroke="#c97b4a" opacity="0.35" stroke-width="1"/>
    <circle cx="195" cy="340" r="118" fill="#2a1f14" stroke="#c97b4a" stroke-width="2.5" opacity="0.95"/>
    <circle cx="195" cy="340" r="106" fill="none" stroke="#c97b4a" stroke-width="1" opacity="0.5" stroke-dasharray="4 6"/>
    <line x1="195" y1="340" x2="295" y2="340" stroke="#c97b4a" stroke-width="0.6" opacity="0.35"/><line x1="195" y1="340" x2="265.71067811865476" y2="410.71067811865476" stroke="#c97b4a" stroke-width="0.6" opacity="0.35"/><line x1="195" y1="340" x2="195" y2="440" stroke="#c97b4a" stroke-width="0.6" opacity="0.35"/><line x1="195" y1="340" x2="124.28932188134526" y2="410.71067811865476" stroke="#c97b4a" stroke-width="0.6" opacity="0.35"/><line x1="195" y1="340" x2="95" y2="340" stroke="#c97b4a" stroke-width="0.6" opacity="0.35"/><line x1="195" y1="340" x2="124.28932188134523" y2="269.28932188134524" stroke="#c97b4a" stroke-width="0.6" opacity="0.35"/><line x1="195" y1="340" x2="194.99999999999997" y2="240" stroke="#c97b4a" stroke-width="0.6" opacity="0.35"/><line x1="195" y1="340" x2="265.71067811865476" y2="269.28932188134524" stroke="#c97b4a" stroke-width="0.6" opacity="0.35"/>
    <polygon points="195,250 185,348 205,348" fill="url(#needle-K04-hamn-ember)" stroke="#ffd9a8" stroke-width="0.8"/>
    <circle cx="195" cy="340" r="10" fill="#080808" stroke="#ffd9a8" stroke-width="1.5"/>
    <circle cx="195" cy="242" r="3" fill="#ff8a50" opacity="0.9"/>
  </g>
    <g transform="translate(113,340) rotate(-90)" opacity="0.85">
        <path d="M-6,-10 L6,-10 L0,8 Z" fill="#ffd9a8" stroke="#ffd9a8" stroke-width="1.6" transform="scale(0.9)"/>
      </g><g transform="translate(195,258) rotate(0)" opacity="0.85">
        <path d="M-8,-6 h16 v12 h-16 z M-4,-2 h8" fill="#ffd9a8" stroke="#ffd9a8" stroke-width="1.6" transform="scale(0.9)"/>
      </g><g transform="translate(277,340) rotate(90)" opacity="0.85">
        <path d="M-10,4 h20 M0,4 v-8 M-6,4 h12" fill="#ffd9a8" stroke="#ffd9a8" stroke-width="1.6" transform="scale(0.9)"/>
      </g><g transform="translate(195,422) rotate(180)" opacity="0.85">
        <path d="M0,6 Q-6,-4 0,-10 Q6,-4 0,6" fill="#ffd9a8" stroke="#ffd9a8" stroke-width="1.6" transform="scale(0.9)"/>
      </g>
  </g>
  
  <g transform="translate(24,250)">
    <rect x="0" y="0" width="77" height="22" rx="4" fill="rgba(0,0,0,0.55)" stroke="#c97b4a" stroke-width="1"/>
    <rect x="6" y="6" width="10" height="10" rx="2" fill="none" stroke="#ffd9a8" stroke-width="1"/>
    <path d="M8 11 L10 13 L14 9" stroke="#ffd9a8" stroke-width="1" fill="none"/>
    <text x="22" y="15" fill="#ffd9a8" font-family="Inter,sans-serif" font-size="9">rutiner</text>
  </g>
  
  <g transform="translate(24,360)">
    <rect x="0" y="0" width="70" height="22" rx="4" fill="rgba(0,0,0,0.55)" stroke="#c97b4a" stroke-width="1"/>
    <rect x="6" y="6" width="10" height="10" rx="2" fill="none" stroke="#ffd9a8" stroke-width="1"/>
    <path d="M8 11 L10 13 L14 9" stroke="#ffd9a8" stroke-width="1" fill="none"/>
    <text x="22" y="15" fill="#ffd9a8" font-family="Inter,sans-serif" font-size="9">budget</text>
  </g>
  <text x="195" y="494" text-anchor="middle" fill="#ffd9a8" font-size="9" font-family="Inter,sans-serif">personlig utveckling</text>
  <g transform="translate(20, 684)">
    <rect width="350" height="72" rx="12" fill="rgba(8,12,18,0.78)" stroke="#c97b4a" stroke-width="2"/>
    <circle cx="36" cy="36" r="14" fill="none" stroke="#ffd9a8" stroke-width="1.2"/>
    <polygon points="36,26 40,38 32,38" fill="#ffd9a8" opacity="0.8"/>
    <text x="58" y="28" fill="#ffd9a8" font-family="Inter,sans-serif" font-size="11" font-weight="600">Dagens riktning</text>
    <text x="58" y="48" fill="#e8e4dc" font-size="9" font-family="Inter,sans-serif">Små steg i rätt riktning skapar det liv</text>
    <text x="58" y="60" fill="#e8e4dc" font-size="9" font-family="Inter,sans-serif">du drömmer om.</text>
    <path d="M330 36 L338 36 M334 32 L338 36 L334 40" stroke="#ffd9a8" stroke-width="1.5" fill="none"/>
  </g>
  <g transform="translate(155, 796)">
    <circle cx="0" cy="0" r="3" fill="#4a4a4a"/><circle cx="16" cy="0" r="3" fill="#ffd9a8"/><circle cx="32" cy="0" r="3" fill="#4a4a4a"/><circle cx="48" cy="0" r="3" fill="#4a4a4a"/><circle cx="64" cy="0" r="3" fill="#4a4a4a"/>
  </g>
  <text x="12" y="836" fill="#6b7280" font-size="8" font-family="monospace">K04-hamn-ember</text>
</svg>