<?xml version="1.0" encoding="UTF-8"?>
<svg xmlns="http://www.w3.org/2000/svg" viewBox="0 0 48 48" fill="none" aria-hidden="true">
  <title>WH2 — D1 skiva + anteckning</title>
  <defs>
    <radialGradient id="dchwhanteckningv1" cx="50%" cy="38%" r="68%">
      <stop offset="0%" stop-color="#3d3420"/>
      <stop offset="48%" stop-color="#141210"/>
      <stop offset="100%" stop-color="#080808"/>
    </radialGradient>
    <linearGradient id="gchwhanteckningv1" x1="0" y1="0" x2="1" y2="1">
      <stop offset="0%" stop-color="#f5e6b8"/>
      <stop offset="45%" stop-color="#d4af37"/>
      <stop offset="100%" stop-color="#6b5212"/>
    </linearGradient>
    <linearGradient id="fchwhanteckningv1" x1="24" y1="4" x2="30" y2="20">
      <stop offset="0%" stop-color="#fff8e0"/>
      <stop offset="55%" stop-color="#ffb74d"/>
      <stop offset="100%" stop-color="#c97808"/>
    </linearGradient>
    <filter id="glchwhanteckningv1" x="-50%" y="-50%" width="200%" height="200%">
      <feGaussianBlur stdDeviation="1.4" result="b"/>
      <feMerge><feMergeNode in="b"/><feMergeNode in="SourceGraphic"/></feMerge>
    </filter>
    <linearGradient id="rimchwhanteckningv1" x1="0" y1="0" x2="1" y2="1">
      <stop offset="0%" stop-color="#5eead4"/>
      <stop offset="40%" stop-color="#818cf8"/>
      <stop offset="75%" stop-color="#d4af37"/>
      <stop offset="100%" stop-color="#2dd4bf"/>
    </linearGradient></defs>

  <circle cx="24" cy="24" r="22" fill="url(#dchwhanteckningv1)" stroke="url(#gchwhanteckningv1)" stroke-width="1.2" stroke-opacity="0.72"/>
  <circle cx="24" cy="24" r="18" stroke="url(#gchwhanteckningv1)" stroke-opacity="0.26" stroke-width="0.6" stroke-dasharray="2 3" fill="none"/>
  <circle cx="24" cy="24" r="14" stroke="url(#gchwhanteckningv1)" stroke-opacity="0.14" stroke-width="0.45" fill="none"/>
  <g stroke="url(#gchwhanteckningv1)" stroke-opacity="0.1" stroke-width="0.35">
    <line x1="24" y1="8" x2="24" y2="40"/><line x1="8" y1="24" x2="40" y2="24"/>
    <line x1="12.7" y1="12.7" x2="35.3" y2="35.3"/><line x1="35.3" y1="12.7" x2="12.7" y2="35.3"/>
  </g>

  <g stroke="url(#gchwhanteckningv1)" stroke-opacity="0.1" stroke-width="0.32">
    <line x1="24" y1="6.5" x2="24" y2="9.2" transform="rotate(0 24 24)"/><line x1="24" y1="6.5" x2="24" y2="9.2" transform="rotate(22.5 24 24)"/><line x1="24" y1="6.5" x2="24" y2="9.2" transform="rotate(45 24 24)"/><line x1="24" y1="6.5" x2="24" y2="9.2" transform="rotate(67.5 24 24)"/><line x1="24" y1="6.5" x2="24" y2="9.2" transform="rotate(90 24 24)"/><line x1="24" y1="6.5" x2="24" y2="9.2" transform="rotate(112.5 24 24)"/><line x1="24" y1="6.5" x2="24" y2="9.2" transform="rotate(135 24 24)"/><line x1="24" y1="6.5" x2="24" y2="9.2" transform="rotate(157.5 24 24)"/><line x1="24" y1="6.5" x2="24" y2="9.2" transform="rotate(180 24 24)"/><line x1="24" y1="6.5" x2="24" y2="9.2" transform="rotate(202.5 24 24)"/><line x1="24" y1="6.5" x2="24" y2="9.2" transform="rotate(225 24 24)"/><line x1="24" y1="6.5" x2="24" y2="9.2" transform="rotate(247.5 24 24)"/><line x1="24" y1="6.5" x2="24" y2="9.2" transform="rotate(270 24 24)"/><line x1="24" y1="6.5" x2="24" y2="9.2" transform="rotate(292.5 24 24)"/><line x1="24" y1="6.5" x2="24" y2="9.2" transform="rotate(315 24 24)"/><line x1="24" y1="6.5" x2="24" y2="9.2" transform="rotate(337.5 24 24)"/>
  </g>

  <g opacity="0.93">
    <path d="M14 11 H30 L36 17 V39 A2 2 0 0 1 34 41 H14 A2 2 0 0 1 12 39 V13 A2 2 0 0 1 14 11 Z" stroke="url(#gchwhanteckningv1)" stroke-width="0.7" fill="url(#gchwhanteckningv1)" fill-opacity="0.18"/>
    <path d="M30 11 V17 H36" stroke="url(#gchwhanteckningv1)" stroke-width="0.65" stroke-linejoin="round" fill="none"/>
    <path d="M17 21 H31 M17 26 H31 M17 31 H25" stroke="url(#gchwhanteckningv1)" stroke-width="0.45" stroke-linecap="round" stroke-opacity="0.4"/>
    <path d="M34 28 L25 37 L24 41 L28 40 L37 31" stroke="url(#gchwhanteckningv1)" stroke-width="0.65" stroke-linecap="round" stroke-linejoin="round" fill="none"/>
    <path d="M34 28 L35.2 31.5 L34 33 L32.8 31.5 Z" fill="url(#fchwhanteckningv1)" filter="url(#glchwhanteckningv1)"/>
  </g>
  <circle cx="24" cy="24" r="2.5" fill="url(#gchwhanteckningv1)" stroke="#0a0a0a" stroke-width="0.5"/>
</svg>
