<?xml version="1.0" encoding="UTF-8"?>
<svg xmlns="http://www.w3.org/2000/svg" viewBox="0 0 48 48" fill="none" aria-hidden="true">
  <title>WH2 — D1 skiva + anteckning</title>
  <defs>
    <radialGradient id="dchwhanteckningv2" cx="50%" cy="38%" r="68%">
      <stop offset="0%" stop-color="#3d3420"/>
      <stop offset="48%" stop-color="#141210"/>
      <stop offset="100%" stop-color="#080808"/>
    </radialGradient>
    <linearGradient id="gchwhanteckningv2" x1="0" y1="0" x2="1" y2="1">
      <stop offset="0%" stop-color="#f5e6b8"/>
      <stop offset="45%" stop-color="#d4af37"/>
      <stop offset="100%" stop-color="#6b5212"/>
    </linearGradient>
    <linearGradient id="fchwhanteckningv2" x1="24" y1="4" x2="30" y2="20">
      <stop offset="0%" stop-color="#fff8e0"/>
      <stop offset="55%" stop-color="#ffb74d"/>
      <stop offset="100%" stop-color="#c97808"/>
    </linearGradient>
    <filter id="glchwhanteckningv2" x="-50%" y="-50%" width="200%" height="200%">
      <feGaussianBlur stdDeviation="1.4" result="b"/>
      <feMerge><feMergeNode in="b"/><feMergeNode in="SourceGraphic"/></feMerge>
    </filter>
  </defs>

  <circle cx="24" cy="24" r="22" fill="url(#dchwhanteckningv2)" stroke="url(#gchwhanteckningv2)" stroke-width="1.2" stroke-opacity="0.72"/>
  <circle cx="24" cy="24" r="18" stroke="url(#gchwhanteckningv2)" stroke-opacity="0.26" stroke-width="0.6" stroke-dasharray="2 3" fill="none"/>
  <circle cx="24" cy="24" r="14" stroke="url(#gchwhanteckningv2)" stroke-opacity="0.14" stroke-width="0.45" fill="none"/>

  <g stroke="url(#gchwhanteckningv2)" stroke-opacity="0.1" stroke-width="0.32">
    <line x1="24" y1="6.5" x2="24" y2="9.2" transform="rotate(0 24 24)"/><line x1="24" y1="6.5" x2="24" y2="9.2" transform="rotate(45 24 24)"/><line x1="24" y1="6.5" x2="24" y2="9.2" transform="rotate(90 24 24)"/><line x1="24" y1="6.5" x2="24" y2="9.2" transform="rotate(135 24 24)"/><line x1="24" y1="6.5" x2="24" y2="9.2" transform="rotate(180 24 24)"/><line x1="24" y1="6.5" x2="24" y2="9.2" transform="rotate(225 24 24)"/><line x1="24" y1="6.5" x2="24" y2="9.2" transform="rotate(270 24 24)"/><line x1="24" y1="6.5" x2="24" y2="9.2" transform="rotate(315 24 24)"/>
  </g>

  <g opacity="0.98">
    <path d="M12.5 10.5 H27.5 L33.5 16.5 V38.5 H12.5 V10.5 Z" stroke="url(#gchwhanteckningv2)" stroke-width="1" fill="url(#gchwhanteckningv2)" fill-opacity="0.24"/>
    <path d="M27.5 10.5 V16.5 H33.5" stroke="url(#gchwhanteckningv2)" stroke-width="0.95" stroke-linejoin="round" fill="none"/>
    <path d="M16 20.5 H29 M16 25.5 H29 M16 30.5 H22.5" stroke="url(#gchwhanteckningv2)" stroke-width="0.7" stroke-linecap="round" stroke-opacity="0.65"/>
    <path d="M31.5 24.5 L22 34 L20.5 38.5 L25 37.5 L34.5 28 Z" stroke="url(#gchwhanteckningv2)" stroke-width="0.95" stroke-linejoin="round" fill="url(#gchwhanteckningv2)" fill-opacity="0.3"/>
    <path d="M31.5 24.5 L33 28.5 L31.5 30.5 L30 28.5 Z" fill="url(#fchwhanteckningv2)" filter="url(#glchwhanteckningv2)"/>
  </g>
</svg>
