<?xml version="1.0" encoding="UTF-8"?>
<svg xmlns="http://www.w3.org/2000/svg" viewBox="0 0 48 48" fill="none" aria-hidden="true">
  <title>WH1 — D1 skiva + inspelning</title>
  <defs>
    <radialGradient id="dchwhinspelningv2" cx="50%" cy="38%" r="68%">
      <stop offset="0%" stop-color="#3d3420"/>
      <stop offset="48%" stop-color="#141210"/>
      <stop offset="100%" stop-color="#080808"/>
    </radialGradient>
    <linearGradient id="gchwhinspelningv2" x1="0" y1="0" x2="1" y2="1">
      <stop offset="0%" stop-color="#f5e6b8"/>
      <stop offset="45%" stop-color="#d4af37"/>
      <stop offset="100%" stop-color="#6b5212"/>
    </linearGradient>
    <linearGradient id="fchwhinspelningv2" x1="24" y1="4" x2="30" y2="20">
      <stop offset="0%" stop-color="#fff8e0"/>
      <stop offset="55%" stop-color="#ffb74d"/>
      <stop offset="100%" stop-color="#c97808"/>
    </linearGradient>
    <filter id="glchwhinspelningv2" x="-50%" y="-50%" width="200%" height="200%">
      <feGaussianBlur stdDeviation="1.4" result="b"/>
      <feMerge><feMergeNode in="b"/><feMergeNode in="SourceGraphic"/></feMerge>
    </filter>
  </defs>

  <circle cx="24" cy="24" r="22" fill="url(#dchwhinspelningv2)" stroke="url(#gchwhinspelningv2)" stroke-width="1.2" stroke-opacity="0.72"/>
  <circle cx="24" cy="24" r="18" stroke="url(#gchwhinspelningv2)" stroke-opacity="0.26" stroke-width="0.6" stroke-dasharray="2 3" fill="none"/>
  <circle cx="24" cy="24" r="14" stroke="url(#gchwhinspelningv2)" stroke-opacity="0.14" stroke-width="0.45" fill="none"/>

  <g stroke="url(#gchwhinspelningv2)" stroke-opacity="0.1" stroke-width="0.32">
    <line x1="24" y1="6.5" x2="24" y2="9.2" transform="rotate(0 24 24)"/><line x1="24" y1="6.5" x2="24" y2="9.2" transform="rotate(45 24 24)"/><line x1="24" y1="6.5" x2="24" y2="9.2" transform="rotate(90 24 24)"/><line x1="24" y1="6.5" x2="24" y2="9.2" transform="rotate(135 24 24)"/><line x1="24" y1="6.5" x2="24" y2="9.2" transform="rotate(180 24 24)"/><line x1="24" y1="6.5" x2="24" y2="9.2" transform="rotate(225 24 24)"/><line x1="24" y1="6.5" x2="24" y2="9.2" transform="rotate(270 24 24)"/><line x1="24" y1="6.5" x2="24" y2="9.2" transform="rotate(315 24 24)"/>
  </g>

  <g opacity="0.98">
    <rect x="19" y="9.5" width="10" height="17" rx="5" stroke="url(#gchwhinspelningv2)" stroke-width="1.05" fill="url(#gchwhinspelningv2)" fill-opacity="0.34"/>
    <path d="M24 13.5 V20.5" stroke="url(#gchwhinspelningv2)" stroke-width="0.75" stroke-linecap="round" stroke-opacity="0.55"/>
    <path d="M11.5 25.5 A12.5 12.5 0 0 0 36.5 25.5" stroke="url(#gchwhinspelningv2)" stroke-width="1.05" stroke-linecap="round" fill="none"/>
    <path d="M24 29.5 V34.5" stroke="url(#gchwhinspelningv2)" stroke-width="1.05" stroke-linecap="round"/>
    <path d="M17.5 34.5 H30.5" stroke="url(#gchwhinspelningv2)" stroke-width="1.05" stroke-linecap="round"/>
    <path d="M27.5 13 L29.2 17.2 L27.5 18.8 L25.8 17.2 Z" fill="url(#fchwhinspelningv2)" filter="url(#glchwhinspelningv2)"/>
  </g>
</svg>
